<svg xmlns="http://www.w3.org/2000/svg" xmlns:xlink="http://www.w3.org/1999/xlink" width="500" zoomAndPan="magnify" viewBox="0 0 375 374.999991" height="500" preserveAspectRatio="xMidYMid meet" version="1.0"><defs><clipPath id="7ba0b468b6"><path d="M 70.566406 55.175781 L 304.433594 55.175781 L 304.433594 289.046875 L 70.566406 289.046875 Z M 70.566406 55.175781 " clip-rule="nonzero"/></clipPath><clipPath id="fc870a1320"><path d="M 187.5 55.175781 C 122.917969 55.175781 70.566406 107.53125 70.566406 172.113281 C 70.566406 236.695312 122.917969 289.046875 187.5 289.046875 C 252.082031 289.046875 304.433594 236.695312 304.433594 172.113281 C 304.433594 107.53125 252.082031 55.175781 187.5 55.175781 Z M 187.5 55.175781 " clip-rule="nonzero"/></clipPath><clipPath id="fa014a8666"><path d="M 111.378906 121.261719 L 262 121.261719 L 262 257 L 111.378906 257 Z M 111.378906 121.261719 " clip-rule="nonzero"/></clipPath><clipPath id="cb3ba7247c"><path d="M 173.382812 248.566406 L 114 144.648438 C 111.230469 139.796875 111.25 133.839844 114.054688 129.007812 C 116.855469 124.179688 122.019531 121.203125 127.605469 121.203125 L 245.953125 121.203125 C 251.539062 121.203125 256.703125 124.179688 259.507812 129.007812 C 262.308594 133.839844 262.328125 139.796875 259.558594 144.648438 L 200.175781 248.566406 C 197.429688 253.375 192.316406 256.339844 186.78125 256.339844 C 181.242188 256.339844 176.132812 253.375 173.382812 248.566406 Z M 173.382812 248.566406 " clip-rule="nonzero"/></clipPath><clipPath id="ac406d66f1"><path d="M 152.296875 202.941406 L 221.296875 202.941406 L 221.296875 271.941406 L 152.296875 271.941406 Z M 152.296875 202.941406 " clip-rule="nonzero"/></clipPath><clipPath id="cd1ec520a0"><path d="M 165.953125 216.652344 L 207.605469 216.652344 L 207.605469 258.300781 L 165.953125 258.300781 Z M 165.953125 216.652344 " clip-rule="nonzero"/></clipPath><clipPath id="bb0fa30066"><path d="M 186.78125 216.652344 C 175.277344 216.652344 165.953125 225.976562 165.953125 237.476562 C 165.953125 248.980469 175.277344 258.300781 186.78125 258.300781 C 198.28125 258.300781 207.605469 248.980469 207.605469 237.476562 C 207.605469 225.976562 198.28125 216.652344 186.78125 216.652344 Z M 186.78125 216.652344 " clip-rule="nonzero"/></clipPath><clipPath id="92be20cf15"><path d="M 178.484375 229.183594 L 195.089844 229.183594 L 195.089844 245.785156 L 178.484375 245.785156 Z M 178.484375 229.183594 " clip-rule="nonzero"/></clipPath><clipPath id="5d0b3c972a"><path d="M 186.785156 229.183594 C 182.203125 229.183594 178.484375 232.898438 178.484375 237.484375 C 178.484375 242.070312 182.203125 245.785156 186.785156 245.785156 C 191.371094 245.785156 195.089844 242.070312 195.089844 237.484375 C 195.089844 232.898438 191.371094 229.183594 186.785156 229.183594 Z M 186.785156 229.183594 " clip-rule="nonzero"/></clipPath><clipPath id="388786f1d7"><path d="M 211.144531 102.972656 L 280.144531 102.972656 L 280.144531 171.972656 L 211.144531 171.972656 Z M 211.144531 102.972656 " clip-rule="nonzero"/></clipPath><clipPath id="c927870e53"><path d="M 224.800781 116.683594 L 266.453125 116.683594 L 266.453125 158.335938 L 224.800781 158.335938 Z M 224.800781 116.683594 " clip-rule="nonzero"/></clipPath><clipPath id="21fd365440"><path d="M 245.628906 116.683594 C 234.125 116.683594 224.800781 126.007812 224.800781 137.511719 C 224.800781 149.011719 234.125 158.335938 245.628906 158.335938 C 257.128906 158.335938 266.453125 149.011719 266.453125 137.511719 C 266.453125 126.007812 257.128906 116.683594 245.628906 116.683594 Z M 245.628906 116.683594 " clip-rule="nonzero"/></clipPath><clipPath id="0ccbd0bc24"><path d="M 237.332031 129.214844 L 253.9375 129.214844 L 253.9375 145.820312 L 237.332031 145.820312 Z M 237.332031 129.214844 " clip-rule="nonzero"/></clipPath><clipPath id="e205b0ee95"><path d="M 245.636719 129.214844 C 241.050781 129.214844 237.332031 132.933594 237.332031 137.515625 C 237.332031 142.101562 241.050781 145.820312 245.636719 145.820312 C 250.21875 145.820312 253.9375 142.101562 253.9375 137.515625 C 253.9375 132.933594 250.21875 129.214844 245.636719 129.214844 Z M 245.636719 129.214844 " clip-rule="nonzero"/></clipPath><clipPath id="b9037f1a03"><path d="M 94.878906 102.972656 L 163.878906 102.972656 L 163.878906 171.972656 L 94.878906 171.972656 Z M 94.878906 102.972656 " clip-rule="nonzero"/></clipPath><clipPath id="1a45b35a30"><path d="M 108.535156 116.683594 L 150.1875 116.683594 L 150.1875 158.335938 L 108.535156 158.335938 Z M 108.535156 116.683594 " clip-rule="nonzero"/></clipPath><clipPath id="3b6b652afe"><path d="M 129.363281 116.683594 C 117.859375 116.683594 108.535156 126.007812 108.535156 137.511719 C 108.535156 149.011719 117.859375 158.335938 129.363281 158.335938 C 140.863281 158.335938 150.1875 149.011719 150.1875 137.511719 C 150.1875 126.007812 140.863281 116.683594 129.363281 116.683594 Z M 129.363281 116.683594 " clip-rule="nonzero"/></clipPath><clipPath id="b62a64d99f"><path d="M 121.066406 129.214844 L 137.671875 129.214844 L 137.671875 145.820312 L 121.066406 145.820312 Z M 121.066406 129.214844 " clip-rule="nonzero"/></clipPath><clipPath id="bfc24526e4"><path d="M 129.371094 129.214844 C 124.785156 129.214844 121.066406 132.933594 121.066406 137.515625 C 121.066406 142.101562 124.785156 145.820312 129.371094 145.820312 C 133.953125 145.820312 137.671875 142.101562 137.671875 137.515625 C 137.671875 132.933594 133.953125 129.214844 129.371094 129.214844 Z M 129.371094 129.214844 " clip-rule="nonzero"/></clipPath></defs><g clip-path="url(#7ba0b468b6)"><g clip-path="url(#fc870a1320)"><path fill="#ffffff" d="M 70.566406 55.175781 L 304.433594 55.175781 L 304.433594 289.046875 L 70.566406 289.046875 Z M 70.566406 55.175781 " fill-opacity="1" fill-rule="nonzero"/></g></g><g clip-path="url(#fa014a8666)"><g clip-path="url(#cb3ba7247c)"><path stroke-linecap="butt" transform="matrix(-0.75, 0, 0, -0.75, 272.953873, 272.009075)" fill="none" stroke-linejoin="miter" d="M 132.761414 31.256892 L 211.938498 169.814184 C 215.631206 176.282934 215.605164 184.225642 211.865581 190.66835 C 208.131206 197.10585 201.245789 201.0746 193.797873 201.0746 L 36.000997 201.0746 C 28.553081 201.0746 21.667664 197.10585 17.928081 190.66835 C 14.193706 184.225642 14.167664 176.282934 17.860372 169.814184 L 97.037456 31.256892 C 100.698914 24.845433 107.516622 20.892308 114.896831 20.892308 C 122.282248 20.892308 129.094748 24.845433 132.761414 31.256892 Z M 132.761414 31.256892 " stroke="#000000" stroke-width="36" stroke-opacity="1" stroke-miterlimit="4"/></g></g><g clip-path="url(#ac406d66f1)"><path fill="#000000" d="M 188.074219 202.992188 C 192.246094 203.148438 196.261719 204.085938 199.964844 205.597656 L 200.695312 207.472656 L 199.132812 210.855469 L 199.808594 212.785156 C 201.84375 213.878906 203.773438 215.179688 205.441406 216.742188 L 207.476562 216.742188 L 210.136719 214.085938 L 212.117188 214.085938 C 214.882812 217.054688 217.070312 220.542969 218.6875 224.34375 L 217.855469 226.167969 L 214.359375 227.46875 L 213.472656 229.292969 C 214.152344 231.425781 214.570312 233.71875 214.671875 236.0625 L 216.132812 237.46875 L 219.886719 237.46875 L 221.296875 238.871094 C 221.140625 243.039062 220.203125 247.046875 218.6875 250.746094 L 216.8125 251.421875 L 213.421875 249.859375 L 211.492188 250.539062 C 210.394531 252.570312 209.09375 254.496094 207.527344 256.160156 L 207.578125 258.191406 L 210.238281 260.847656 L 210.238281 262.828125 C 207.265625 265.585938 203.773438 267.773438 199.964844 269.335938 L 198.140625 268.503906 L 196.835938 265.015625 L 195.011719 264.128906 C 192.820312 264.804688 190.578125 265.222656 188.230469 265.328125 L 186.824219 266.785156 L 186.824219 270.535156 L 185.414062 271.941406 C 181.242188 271.785156 177.226562 270.847656 173.523438 269.285156 L 172.84375 267.410156 L 174.410156 264.023438 L 173.730469 262.097656 C 171.699219 261.003906 169.769531 259.703125 168.097656 258.140625 L 166.066406 258.191406 L 163.40625 260.847656 L 161.421875 260.847656 C 158.660156 257.878906 156.46875 254.390625 154.902344 250.589844 L 155.738281 248.765625 L 159.234375 247.464844 L 160.121094 245.644531 C 159.441406 243.507812 159.023438 241.214844 158.921875 238.871094 L 157.460938 237.46875 L 153.703125 237.46875 L 152.296875 236.0625 C 152.453125 231.894531 153.390625 227.886719 154.902344 224.1875 L 156.78125 223.511719 L 160.171875 225.074219 L 162.101562 224.394531 C 163.195312 222.367188 164.5 220.4375 166.066406 218.773438 L 166.066406 216.742188 L 163.40625 214.085938 L 163.40625 212.105469 C 166.378906 209.347656 169.871094 207.160156 173.679688 205.546875 L 175.503906 206.378906 L 176.808594 209.867188 L 178.632812 210.753906 C 180.824219 210.074219 183.066406 209.660156 185.414062 209.554688 L 186.824219 208.097656 L 186.824219 204.347656 L 188.230469 202.941406 Z M 186.667969 217.730469 C 197.566406 217.730469 206.433594 226.582031 206.433594 237.46875 C 206.433594 248.351562 197.566406 257.203125 186.667969 257.203125 C 175.765625 257.203125 166.898438 248.351562 166.898438 237.46875 C 166.898438 226.582031 175.765625 217.730469 186.667969 217.730469 Z M 186.667969 217.730469 " fill-opacity="1" fill-rule="evenodd"/></g><g clip-path="url(#cd1ec520a0)"><g clip-path="url(#bb0fa30066)"><path fill="#ffffff" d="M 165.953125 216.652344 L 207.605469 216.652344 L 207.605469 258.300781 L 165.953125 258.300781 Z M 165.953125 216.652344 " fill-opacity="1" fill-rule="nonzero"/></g></g><g clip-path="url(#92be20cf15)"><g clip-path="url(#5d0b3c972a)"><path fill="#222222" d="M 178.484375 229.183594 L 195.089844 229.183594 L 195.089844 245.785156 L 178.484375 245.785156 Z M 178.484375 229.183594 " fill-opacity="1" fill-rule="nonzero"/></g></g><g clip-path="url(#388786f1d7)"><path fill="#000000" d="M 246.921875 103.027344 C 251.09375 103.183594 255.109375 104.121094 258.8125 105.628906 L 259.542969 107.503906 L 257.980469 110.890625 L 258.65625 112.816406 C 260.691406 113.910156 262.621094 115.210938 264.289062 116.773438 L 266.324219 116.773438 L 268.984375 114.117188 L 270.964844 114.117188 C 273.730469 117.085938 275.921875 120.574219 277.539062 124.375 L 276.703125 126.199219 L 273.207031 127.5 L 272.320312 129.324219 C 273 131.460938 273.417969 133.75 273.519531 136.09375 L 274.980469 137.5 L 278.738281 137.5 L 280.144531 138.90625 C 279.988281 143.070312 279.050781 147.082031 277.539062 150.777344 L 275.660156 151.457031 L 272.269531 149.894531 L 270.339844 150.570312 C 269.246094 152.601562 267.941406 154.527344 266.375 156.195312 L 266.429688 158.226562 L 269.089844 160.882812 L 269.089844 162.859375 C 266.117188 165.621094 262.621094 167.808594 258.8125 169.371094 L 256.988281 168.535156 L 255.683594 165.046875 L 253.859375 164.160156 C 251.667969 164.839844 249.425781 165.253906 247.078125 165.359375 L 245.671875 166.816406 L 245.671875 170.566406 L 244.261719 171.972656 C 240.089844 171.816406 236.074219 170.878906 232.371094 169.316406 L 231.695312 167.441406 L 233.257812 164.058594 L 232.582031 162.132812 C 230.546875 161.039062 228.617188 159.734375 226.949219 158.171875 L 224.914062 158.226562 L 222.253906 160.882812 L 220.273438 160.882812 C 217.507812 157.914062 215.316406 154.425781 213.753906 150.621094 L 214.585938 148.800781 L 218.082031 147.496094 L 218.96875 145.675781 C 218.289062 143.539062 217.871094 141.25 217.769531 138.90625 L 216.308594 137.5 L 212.554688 137.5 L 211.144531 136.09375 C 211.300781 131.925781 212.238281 127.917969 213.753906 124.21875 L 215.628906 123.542969 L 219.019531 125.105469 L 220.949219 124.429688 C 222.046875 122.398438 223.347656 120.472656 224.914062 118.804688 L 224.914062 116.773438 L 222.253906 114.117188 L 222.253906 112.140625 C 225.226562 109.378906 228.722656 107.191406 232.527344 105.578125 L 234.351562 106.410156 L 235.65625 109.898438 L 237.484375 110.785156 C 239.671875 110.109375 241.914062 109.691406 244.261719 109.585938 L 245.671875 108.128906 L 245.671875 104.378906 L 247.078125 102.972656 Z M 245.515625 117.761719 C 256.414062 117.761719 265.28125 126.617188 265.28125 137.5 C 265.28125 148.382812 256.414062 157.234375 245.515625 157.234375 C 234.613281 157.234375 225.746094 148.382812 225.746094 137.5 C 225.746094 126.617188 234.613281 117.761719 245.515625 117.761719 Z M 245.515625 117.761719 " fill-opacity="1" fill-rule="evenodd"/></g><g clip-path="url(#c927870e53)"><g clip-path="url(#21fd365440)"><path fill="#ffffff" d="M 224.800781 116.683594 L 266.453125 116.683594 L 266.453125 158.335938 L 224.800781 158.335938 Z M 224.800781 116.683594 " fill-opacity="1" fill-rule="nonzero"/></g></g><g clip-path="url(#0ccbd0bc24)"><g clip-path="url(#e205b0ee95)"><path fill="#222222" d="M 237.332031 129.214844 L 253.9375 129.214844 L 253.9375 145.820312 L 237.332031 145.820312 Z M 237.332031 129.214844 " fill-opacity="1" fill-rule="nonzero"/></g></g><g clip-path="url(#b9037f1a03)"><path fill="#000000" d="M 130.65625 103.027344 C 134.828125 103.183594 138.84375 104.121094 142.546875 105.628906 L 143.277344 107.503906 L 141.714844 110.890625 L 142.390625 112.816406 C 144.425781 113.910156 146.355469 115.210938 148.023438 116.773438 L 150.058594 116.773438 L 152.71875 114.117188 L 154.699219 114.117188 C 157.464844 117.085938 159.65625 120.574219 161.273438 124.375 L 160.4375 126.199219 L 156.941406 127.5 L 156.054688 129.324219 C 156.734375 131.460938 157.152344 133.75 157.257812 136.09375 L 158.714844 137.5 L 162.472656 137.5 L 163.878906 138.90625 C 163.722656 143.070312 162.785156 147.082031 161.273438 150.777344 L 159.394531 151.457031 L 156.003906 149.894531 L 154.074219 150.570312 C 152.980469 152.601562 151.675781 154.527344 150.109375 156.195312 L 150.164062 158.226562 L 152.824219 160.882812 L 152.824219 162.859375 C 149.851562 165.621094 146.355469 167.808594 142.546875 169.371094 L 140.722656 168.535156 L 139.417969 165.046875 L 137.59375 164.160156 C 135.402344 164.839844 133.160156 165.253906 130.8125 165.359375 L 129.40625 166.816406 L 129.40625 170.566406 L 127.996094 171.972656 C 123.824219 171.816406 119.808594 170.878906 116.105469 169.316406 L 115.429688 167.441406 L 116.992188 164.058594 L 116.316406 162.132812 C 114.28125 161.039062 112.351562 159.734375 110.683594 158.171875 L 108.648438 158.226562 L 105.988281 160.882812 L 104.007812 160.882812 C 101.242188 157.914062 99.050781 154.425781 97.488281 150.621094 L 98.320312 148.800781 L 101.816406 147.496094 L 102.703125 145.675781 C 102.023438 143.539062 101.605469 141.25 101.503906 138.90625 L 100.042969 137.5 L 96.289062 137.5 L 94.878906 136.09375 C 95.035156 131.925781 95.976562 127.917969 97.488281 124.21875 L 99.363281 123.542969 L 102.753906 125.105469 L 104.683594 124.429688 C 105.78125 122.398438 107.082031 120.472656 108.648438 118.804688 L 108.648438 116.773438 L 105.988281 114.117188 L 105.988281 112.140625 C 108.960938 109.378906 112.457031 107.191406 116.261719 105.578125 L 118.089844 106.410156 L 119.390625 109.898438 L 121.21875 110.785156 C 123.40625 110.109375 125.652344 109.691406 127.996094 109.585938 L 129.40625 108.128906 L 129.40625 104.378906 L 130.8125 102.972656 Z M 129.25 117.761719 C 140.148438 117.761719 149.015625 126.617188 149.015625 137.5 C 149.015625 148.382812 140.148438 157.234375 129.25 157.234375 C 118.347656 157.234375 109.484375 148.382812 109.484375 137.5 C 109.484375 126.617188 118.347656 117.761719 129.25 117.761719 Z M 129.25 117.761719 " fill-opacity="1" fill-rule="evenodd"/></g><g clip-path="url(#1a45b35a30)"><g clip-path="url(#3b6b652afe)"><path fill="#ffffff" d="M 108.535156 116.683594 L 150.1875 116.683594 L 150.1875 158.335938 L 108.535156 158.335938 Z M 108.535156 116.683594 " fill-opacity="1" fill-rule="nonzero"/></g></g><g clip-path="url(#b62a64d99f)"><g clip-path="url(#bfc24526e4)"><path fill="#222222" d="M 121.066406 129.214844 L 137.671875 129.214844 L 137.671875 145.820312 L 121.066406 145.820312 Z M 121.066406 129.214844 " fill-opacity="1" fill-rule="nonzero"/></g></g></svg>