<svg xmlns="http://www.w3.org/2000/svg" xmlns:xlink="http://www.w3.org/1999/xlink" width="1724" zoomAndPan="magnify" viewBox="0 0 1293 414.749985" height="553" preserveAspectRatio="xMidYMid meet" version="1.0"><defs><g/><clipPath id="fa9e9faf95"><path d="M 66.242188 116.089844 L 216.957031 116.089844 L 216.957031 252 L 66.242188 252 Z M 66.242188 116.089844 " clip-rule="nonzero"/></clipPath><clipPath id="be6ddfbe8a"><path d="M 128.214844 243.320312 L 68.867188 139.460938 C 66.097656 134.617188 66.117188 128.660156 68.917969 123.832031 C 71.71875 119.003906 76.878906 116.035156 82.460938 116.035156 L 200.738281 116.035156 C 206.320312 116.035156 211.480469 119.003906 214.28125 123.832031 C 217.085938 128.660156 217.105469 134.617188 214.335938 139.460938 L 154.988281 243.320312 C 152.242188 248.125 147.132812 251.089844 141.601562 251.089844 C 136.066406 251.089844 130.957031 248.125 128.214844 243.320312 Z M 128.214844 243.320312 " clip-rule="nonzero"/></clipPath><clipPath id="926ac5056f"><path d="M 107.140625 197.71875 L 176.097656 197.71875 L 176.097656 266.675781 L 107.140625 266.675781 Z M 107.140625 197.71875 " clip-rule="nonzero"/></clipPath><clipPath id="15eaec3046"><path d="M 120.789062 211.421875 L 162.417969 211.421875 L 162.417969 253.046875 L 120.789062 253.046875 Z M 120.789062 211.421875 " clip-rule="nonzero"/></clipPath><clipPath id="584fb824e9"><path d="M 141.601562 211.421875 C 130.109375 211.421875 120.789062 220.738281 120.789062 232.234375 C 120.789062 243.730469 130.109375 253.046875 141.601562 253.046875 C 153.097656 253.046875 162.417969 243.730469 162.417969 232.234375 C 162.417969 220.738281 153.097656 211.421875 141.601562 211.421875 Z M 141.601562 211.421875 " clip-rule="nonzero"/></clipPath><clipPath id="1dc7cd5b53"><path d="M 133.308594 223.9375 L 149.898438 223.9375 L 149.898438 240.53125 L 133.308594 240.53125 Z M 133.308594 223.9375 " clip-rule="nonzero"/></clipPath><clipPath id="80edcceea7"><path d="M 141.601562 223.9375 C 137.019531 223.9375 133.308594 227.652344 133.308594 232.234375 C 133.308594 236.816406 137.019531 240.53125 141.601562 240.53125 C 146.183594 240.53125 149.898438 236.816406 149.898438 232.234375 C 149.898438 227.652344 146.183594 223.9375 141.601562 223.9375 Z M 141.601562 223.9375 " clip-rule="nonzero"/></clipPath><clipPath id="d5816d6f41"><path d="M 165.953125 97.8125 L 234.910156 97.8125 L 234.910156 166.769531 L 165.953125 166.769531 Z M 165.953125 97.8125 " clip-rule="nonzero"/></clipPath><clipPath id="22d958e100"><path d="M 179.601562 111.515625 L 221.230469 111.515625 L 221.230469 153.140625 L 179.601562 153.140625 Z M 179.601562 111.515625 " clip-rule="nonzero"/></clipPath><clipPath id="57dc456bf2"><path d="M 200.414062 111.515625 C 188.921875 111.515625 179.601562 120.832031 179.601562 132.328125 C 179.601562 143.824219 188.921875 153.140625 200.414062 153.140625 C 211.910156 153.140625 221.230469 143.824219 221.230469 132.328125 C 221.230469 120.832031 211.910156 111.515625 200.414062 111.515625 Z M 200.414062 111.515625 " clip-rule="nonzero"/></clipPath><clipPath id="ff9a59e557"><path d="M 192.121094 124.03125 L 208.710938 124.03125 L 208.710938 140.625 L 192.121094 140.625 Z M 192.121094 124.03125 " clip-rule="nonzero"/></clipPath><clipPath id="0438d9ac67"><path d="M 200.414062 124.03125 C 195.832031 124.03125 192.121094 127.746094 192.121094 132.328125 C 192.121094 136.910156 195.832031 140.625 200.414062 140.625 C 204.996094 140.625 208.710938 136.910156 208.710938 132.328125 C 208.710938 127.746094 204.996094 124.03125 200.414062 124.03125 Z M 200.414062 124.03125 " clip-rule="nonzero"/></clipPath><clipPath id="db242a47e0"><path d="M 49.757812 97.8125 L 118.714844 97.8125 L 118.714844 166.769531 L 49.757812 166.769531 Z M 49.757812 97.8125 " clip-rule="nonzero"/></clipPath><clipPath id="80921c8c15"><path d="M 63.40625 111.515625 L 105.035156 111.515625 L 105.035156 153.140625 L 63.40625 153.140625 Z M 63.40625 111.515625 " clip-rule="nonzero"/></clipPath><clipPath id="b1e9a8442c"><path d="M 84.21875 111.515625 C 72.726562 111.515625 63.40625 120.832031 63.40625 132.328125 C 63.40625 143.824219 72.726562 153.140625 84.21875 153.140625 C 95.714844 153.140625 105.035156 143.824219 105.035156 132.328125 C 105.035156 120.832031 95.714844 111.515625 84.21875 111.515625 Z M 84.21875 111.515625 " clip-rule="nonzero"/></clipPath><clipPath id="3a7e0f3fad"><path d="M 75.925781 124.03125 L 92.515625 124.03125 L 92.515625 140.625 L 75.925781 140.625 Z M 75.925781 124.03125 " clip-rule="nonzero"/></clipPath><clipPath id="1870174d78"><path d="M 84.21875 124.03125 C 79.636719 124.03125 75.925781 127.746094 75.925781 132.328125 C 75.925781 136.910156 79.636719 140.625 84.21875 140.625 C 88.800781 140.625 92.515625 136.910156 92.515625 132.328125 C 92.515625 127.746094 88.800781 124.03125 84.21875 124.03125 Z M 84.21875 124.03125 " clip-rule="nonzero"/></clipPath></defs><g clip-path="url(#fa9e9faf95)"><g clip-path="url(#be6ddfbe8a)"><path stroke-linecap="butt" transform="matrix(-0.749548, 0, 0, -0.749548, 227.722279, 266.74758)" fill="none" stroke-linejoin="miter" d="M 132.756556 31.255186 L 211.934463 169.817826 C 215.629397 176.280053 215.603339 184.227549 211.866713 190.668929 C 208.130087 197.11031 201.245732 201.071029 193.798537 201.071029 L 36.000351 201.071029 C 28.553156 201.071029 21.6688 197.11031 17.932174 190.668929 C 14.190337 184.227549 14.164279 176.280053 17.859214 169.817826 L 97.037121 31.255186 C 100.700786 24.845075 107.517393 20.889567 114.896838 20.889567 C 122.281495 20.889567 129.098102 24.845075 132.756556 31.255186 Z M 132.756556 31.255186 " stroke="#000000" stroke-width="36" stroke-opacity="1" stroke-miterlimit="4"/></g></g><g clip-path="url(#926ac5056f)"><path fill="#000000" d="M 142.894531 197.773438 C 147.066406 197.929688 151.078125 198.863281 154.78125 200.375 L 155.507812 202.246094 L 153.945312 205.628906 L 154.625 207.554688 C 156.65625 208.648438 158.585938 209.949219 160.253906 211.511719 L 162.285156 211.511719 L 164.945312 208.855469 L 166.925781 208.855469 C 169.6875 211.824219 171.875 215.308594 173.492188 219.109375 L 172.65625 220.929688 L 169.164062 222.230469 L 168.28125 224.054688 C 168.957031 226.1875 169.375 228.476562 169.480469 230.820312 L 170.9375 232.222656 L 174.691406 232.222656 L 176.097656 233.628906 C 175.941406 237.792969 175.003906 241.800781 173.492188 245.496094 L 171.617188 246.171875 L 168.226562 244.609375 L 166.300781 245.289062 C 165.203125 247.316406 163.902344 249.242188 162.335938 250.90625 L 162.390625 252.9375 L 165.046875 255.59375 L 165.046875 257.570312 C 162.078125 260.328125 158.585938 262.511719 154.78125 264.074219 L 152.957031 263.242188 L 151.652344 259.753906 L 149.828125 258.871094 C 147.640625 259.546875 145.398438 259.964844 143.050781 260.066406 L 141.644531 261.523438 L 141.644531 265.273438 L 140.238281 266.675781 C 136.066406 266.519531 132.054688 265.585938 128.355469 264.023438 L 127.675781 262.148438 L 129.238281 258.765625 L 128.5625 256.839844 C 126.53125 255.746094 124.601562 254.445312 122.933594 252.886719 L 120.898438 252.9375 L 118.242188 255.59375 L 116.261719 255.59375 C 113.5 252.625 111.308594 249.136719 109.746094 245.339844 L 110.578125 243.519531 L 114.070312 242.21875 L 114.957031 240.394531 C 114.28125 238.261719 113.863281 235.972656 113.757812 233.628906 L 112.300781 232.222656 L 108.546875 232.222656 L 107.140625 230.820312 C 107.296875 226.65625 108.234375 222.648438 109.746094 218.953125 L 111.621094 218.277344 L 115.011719 219.839844 L 116.9375 219.160156 C 118.035156 217.132812 119.335938 215.207031 120.898438 213.539062 L 120.898438 211.511719 L 118.242188 208.855469 L 118.242188 206.878906 C 121.214844 204.121094 124.707031 201.933594 128.511719 200.320312 L 130.335938 201.15625 L 131.636719 204.640625 L 133.460938 205.527344 C 135.652344 204.851562 137.890625 204.433594 140.238281 204.328125 L 141.644531 202.871094 L 141.644531 199.125 L 143.050781 197.71875 Z M 141.488281 212.5 C 152.382812 212.5 161.242188 221.347656 161.242188 232.222656 C 161.242188 243.101562 152.382812 251.949219 141.488281 251.949219 C 130.59375 251.949219 121.734375 243.101562 121.734375 232.222656 C 121.734375 221.347656 130.59375 212.5 141.488281 212.5 Z M 141.488281 212.5 " fill-opacity="1" fill-rule="evenodd"/></g><g clip-path="url(#15eaec3046)"><g clip-path="url(#584fb824e9)"><path fill="#ffffff" d="M 120.789062 211.421875 L 162.417969 211.421875 L 162.417969 253.046875 L 120.789062 253.046875 Z M 120.789062 211.421875 " fill-opacity="1" fill-rule="nonzero"/></g></g><g clip-path="url(#1dc7cd5b53)"><g clip-path="url(#80edcceea7)"><path fill="#222222" d="M 133.308594 223.9375 L 149.898438 223.9375 L 149.898438 240.53125 L 133.308594 240.53125 Z M 133.308594 223.9375 " fill-opacity="1" fill-rule="nonzero"/></g></g><g clip-path="url(#d5816d6f41)"><path fill="#000000" d="M 201.707031 97.863281 C 205.878906 98.019531 209.890625 98.957031 213.59375 100.46875 L 214.324219 102.339844 L 212.757812 105.722656 L 213.4375 107.648438 C 215.46875 108.742188 217.398438 110.042969 219.066406 111.605469 L 221.097656 111.605469 L 223.757812 108.949219 L 225.738281 108.949219 C 228.5 111.917969 230.6875 115.402344 232.304688 119.203125 L 231.472656 121.023438 L 227.980469 122.324219 L 227.09375 124.148438 C 227.769531 126.28125 228.1875 128.570312 228.292969 130.914062 L 229.75 132.316406 L 233.503906 132.316406 L 234.910156 133.722656 C 234.753906 137.886719 233.816406 141.894531 232.304688 145.589844 L 230.429688 146.265625 L 227.039062 144.703125 L 225.113281 145.378906 C 224.015625 147.410156 222.714844 149.335938 221.152344 151 L 221.203125 153.03125 L 223.859375 155.683594 L 223.859375 157.664062 C 220.890625 160.421875 217.398438 162.605469 213.59375 164.167969 L 211.769531 163.335938 L 210.464844 159.847656 L 208.640625 158.964844 C 206.453125 159.640625 204.210938 160.054688 201.863281 160.160156 L 200.457031 161.617188 L 200.457031 165.363281 L 199.050781 166.769531 C 194.878906 166.613281 190.867188 165.675781 187.167969 164.117188 L 186.488281 162.242188 L 188.050781 158.859375 L 187.375 156.933594 C 185.34375 155.839844 183.414062 154.539062 181.746094 152.980469 L 179.714844 153.03125 L 177.054688 155.683594 L 175.074219 155.683594 C 172.3125 152.71875 170.121094 149.230469 168.558594 145.433594 L 169.394531 143.609375 L 172.886719 142.308594 L 173.769531 140.488281 C 173.09375 138.355469 172.675781 136.066406 172.570312 133.722656 L 171.113281 132.316406 L 167.359375 132.316406 L 165.953125 130.914062 C 166.109375 126.75 167.046875 122.742188 168.558594 119.046875 L 170.433594 118.371094 L 173.824219 119.929688 L 175.75 119.253906 C 176.847656 117.226562 178.148438 115.300781 179.714844 113.632812 L 179.714844 111.605469 L 177.054688 108.949219 L 177.054688 106.972656 C 180.027344 104.214844 183.519531 102.027344 187.324219 100.414062 L 189.148438 101.246094 L 190.449219 104.734375 L 192.273438 105.621094 C 194.464844 104.941406 196.703125 104.527344 199.050781 104.421875 L 200.457031 102.964844 L 200.457031 99.21875 L 201.863281 97.8125 Z M 200.300781 112.59375 C 211.195312 112.59375 220.054688 121.441406 220.054688 132.316406 C 220.054688 143.195312 211.195312 152.042969 200.300781 152.042969 C 189.40625 152.042969 180.546875 143.195312 180.546875 132.316406 C 180.546875 121.441406 189.40625 112.59375 200.300781 112.59375 Z M 200.300781 112.59375 " fill-opacity="1" fill-rule="evenodd"/></g><g clip-path="url(#22d958e100)"><g clip-path="url(#57dc456bf2)"><path fill="#ffffff" d="M 179.601562 111.515625 L 221.230469 111.515625 L 221.230469 153.140625 L 179.601562 153.140625 Z M 179.601562 111.515625 " fill-opacity="1" fill-rule="nonzero"/></g></g><g clip-path="url(#ff9a59e557)"><g clip-path="url(#0438d9ac67)"><path fill="#222222" d="M 192.121094 124.03125 L 208.710938 124.03125 L 208.710938 140.625 L 192.121094 140.625 Z M 192.121094 124.03125 " fill-opacity="1" fill-rule="nonzero"/></g></g><g clip-path="url(#db242a47e0)"><path fill="#000000" d="M 85.511719 97.863281 C 89.683594 98.019531 93.695312 98.957031 97.398438 100.46875 L 98.128906 102.339844 L 96.5625 105.722656 L 97.242188 107.648438 C 99.273438 108.742188 101.203125 110.042969 102.871094 111.605469 L 104.902344 111.605469 L 107.5625 108.949219 L 109.542969 108.949219 C 112.304688 111.917969 114.492188 115.402344 116.109375 119.203125 L 115.277344 121.023438 L 111.785156 122.324219 L 110.898438 124.148438 C 111.574219 126.28125 111.992188 128.570312 112.097656 130.914062 L 113.554688 132.316406 L 117.308594 132.316406 L 118.714844 133.722656 C 118.558594 137.886719 117.621094 141.894531 116.109375 145.589844 L 114.234375 146.265625 L 110.84375 144.703125 L 108.917969 145.378906 C 107.820312 147.410156 106.519531 149.335938 104.957031 151 L 105.007812 153.03125 L 107.664062 155.683594 L 107.664062 157.664062 C 104.695312 160.421875 101.203125 162.605469 97.398438 164.167969 L 95.574219 163.335938 L 94.269531 159.847656 L 92.445312 158.964844 C 90.257812 159.640625 88.015625 160.054688 85.667969 160.160156 L 84.261719 161.617188 L 84.261719 165.363281 L 82.855469 166.769531 C 78.683594 166.613281 74.671875 165.675781 70.972656 164.117188 L 70.292969 162.242188 L 71.855469 158.859375 L 71.179688 156.933594 C 69.148438 155.839844 67.21875 154.539062 65.550781 152.980469 L 63.519531 153.03125 L 60.859375 155.683594 L 58.878906 155.683594 C 56.117188 152.71875 53.925781 149.230469 52.363281 145.433594 L 53.199219 143.609375 L 56.691406 142.308594 L 57.574219 140.488281 C 56.898438 138.355469 56.480469 136.066406 56.375 133.722656 L 54.917969 132.316406 L 51.164062 132.316406 L 49.757812 130.914062 C 49.914062 126.75 50.851562 122.742188 52.363281 119.046875 L 54.238281 118.371094 L 57.628906 119.929688 L 59.554688 119.253906 C 60.652344 117.226562 61.953125 115.300781 63.519531 113.632812 L 63.519531 111.605469 L 60.859375 108.949219 L 60.859375 106.972656 C 63.832031 104.214844 67.324219 102.027344 71.128906 100.414062 L 72.953125 101.246094 L 74.253906 104.734375 L 76.078125 105.621094 C 78.269531 104.941406 80.507812 104.527344 82.855469 104.421875 L 84.261719 102.964844 L 84.261719 99.21875 L 85.667969 97.8125 Z M 84.105469 112.59375 C 95 112.59375 103.859375 121.441406 103.859375 132.316406 C 103.859375 143.195312 95 152.042969 84.105469 152.042969 C 73.210938 152.042969 64.351562 143.195312 64.351562 132.316406 C 64.351562 121.441406 73.210938 112.59375 84.105469 112.59375 Z M 84.105469 112.59375 " fill-opacity="1" fill-rule="evenodd"/></g><g clip-path="url(#80921c8c15)"><g clip-path="url(#b1e9a8442c)"><path fill="#ffffff" d="M 63.40625 111.515625 L 105.035156 111.515625 L 105.035156 153.140625 L 63.40625 153.140625 Z M 63.40625 111.515625 " fill-opacity="1" fill-rule="nonzero"/></g></g><g clip-path="url(#3a7e0f3fad)"><g clip-path="url(#1870174d78)"><path fill="#222222" d="M 75.925781 124.03125 L 92.515625 124.03125 L 92.515625 140.625 L 75.925781 140.625 Z M 75.925781 124.03125 " fill-opacity="1" fill-rule="nonzero"/></g></g><g fill="#000000" fill-opacity="1"><g transform="translate(250.39993, 257.43282)"><g><path d="M 40.25 0 C 38.75 0 36.238281 0.0351562 32.71875 0.109375 C 29.195312 0.179688 25.5625 0.253906 21.8125 0.328125 C 18.0625 0.410156 15.0625 0.523438 12.8125 0.671875 L 12.8125 -4.5 L 19.34375 -7.875 C 21.882812 -9.070312 23.53125 -10.976562 24.28125 -13.59375 C 25.03125 -16.21875 25.40625 -18.957031 25.40625 -21.8125 L 25.40625 -128.390625 C 25.40625 -138.585938 24.359375 -144.507812 22.265625 -146.15625 C 21.210938 -146.90625 19.859375 -147.390625 18.203125 -147.609375 C 16.554688 -147.835938 15.0625 -148.03125 13.71875 -148.1875 L 4.953125 -148.859375 L 4.953125 -155.609375 C 9.597656 -155.609375 14.503906 -155.53125 19.671875 -155.375 C 24.847656 -155.226562 29.644531 -155.113281 34.0625 -155.03125 C 38.488281 -154.957031 41.828125 -154.921875 44.078125 -154.921875 C 52.316406 -154.921875 60.742188 -155.035156 69.359375 -155.265625 C 77.984375 -155.492188 84.992188 -155.609375 90.390625 -155.609375 C 106.285156 -155.609375 120.113281 -152.757812 131.875 -147.0625 C 143.644531 -141.363281 152.753906 -133.378906 159.203125 -123.109375 C 165.648438 -112.835938 168.875 -100.804688 168.875 -87.015625 C 168.875 -82.972656 168.421875 -77.988281 167.515625 -72.0625 C 166.617188 -66.144531 165.046875 -59.882812 162.796875 -53.28125 C 160.546875 -46.6875 157.285156 -40.203125 153.015625 -33.828125 C 148.742188 -27.460938 143.269531 -21.691406 136.59375 -16.515625 C 129.925781 -11.347656 121.757812 -7.191406 112.09375 -4.046875 C 102.425781 -0.898438 90.992188 0.671875 77.796875 0.671875 C 72.398438 0.671875 66.851562 0.554688 61.15625 0.328125 C 55.457031 0.109375 48.488281 0 40.25 0 Z M 46.765625 -144.8125 L 46.765625 -11.015625 C 50.660156 -10.117188 55.492188 -9.59375 61.265625 -9.4375 C 67.046875 -9.289062 71.882812 -9.21875 75.78125 -9.21875 C 89.570312 -9.21875 101.640625 -11.878906 111.984375 -17.203125 C 122.328125 -22.523438 130.382812 -30.503906 136.15625 -41.140625 C 141.925781 -51.785156 144.8125 -64.976562 144.8125 -80.71875 C 144.8125 -97.207031 142.113281 -110.25 136.71875 -119.84375 C 131.320312 -129.4375 123.453125 -136.296875 113.109375 -140.421875 C 102.765625 -144.546875 90.242188 -146.609375 75.546875 -146.609375 C 70.898438 -146.609375 65.988281 -146.53125 60.8125 -146.375 C 55.644531 -146.226562 50.960938 -145.707031 46.765625 -144.8125 Z M 46.765625 -144.8125 "/></g></g></g><g fill="#000000" fill-opacity="1"><g transform="translate(424.444722, 257.43282)"><g><path d="M 42.28125 -61.609375 L 42.28125 -23.828125 C 42.28125 -19.179688 42.390625 -15.769531 42.609375 -13.59375 C 42.835938 -11.425781 43.25 -9.96875 43.84375 -9.21875 C 44.894531 -7.875 47.894531 -7.050781 52.84375 -6.75 L 64.53125 -6.078125 L 64.53125 0.671875 C 61.53125 0.523438 58.046875 0.410156 54.078125 0.328125 C 50.109375 0.253906 46.210938 0.179688 42.390625 0.109375 C 38.566406 0.0351562 35.378906 0 32.828125 0 C 28.628906 0 23.753906 0.0703125 18.203125 0.21875 C 12.660156 0.375 8.164062 0.523438 4.71875 0.671875 L 4.71875 -6.078125 L 14.84375 -6.75 C 16.34375 -6.894531 17.765625 -7.117188 19.109375 -7.421875 C 20.460938 -7.722656 21.4375 -8.394531 22.03125 -9.4375 C 22.78125 -10.644531 23.191406 -12.742188 23.265625 -15.734375 C 23.347656 -18.734375 23.390625 -21.359375 23.390625 -23.609375 L 23.390625 -74.875 C 23.390625 -81.925781 22.789062 -86.195312 21.59375 -87.6875 C 20.539062 -89.1875 17.988281 -89.9375 13.9375 -89.9375 L 5.171875 -89.9375 L 5.171875 -96.234375 C 11.921875 -96.984375 18.40625 -98.257812 24.625 -100.0625 C 30.84375 -101.863281 36.050781 -103.660156 40.25 -105.453125 L 42.28125 -104.5625 L 42.28125 -81.84375 L 42.71875 -81.84375 L 54.859375 -96.234375 C 57.859375 -99.679688 61.082031 -102.078125 64.53125 -103.421875 C 67.976562 -104.773438 71.050781 -105.453125 73.75 -105.453125 C 75.40625 -105.453125 77.28125 -105.226562 79.375 -104.78125 C 81.46875 -104.332031 83.039062 -103.734375 84.09375 -102.984375 L 82.078125 -76 L 77.359375 -76 C 76.148438 -78.695312 74.304688 -81.09375 71.828125 -83.1875 C 69.359375 -85.289062 66.101562 -86.34375 62.0625 -86.34375 C 59.507812 -86.34375 57.070312 -85.703125 54.75 -84.421875 C 52.425781 -83.148438 50.441406 -81.617188 48.796875 -79.828125 C 47.148438 -77.878906 45.648438 -75.367188 44.296875 -72.296875 C 42.953125 -69.222656 42.28125 -65.660156 42.28125 -61.609375 Z M 42.28125 -61.609375 "/></g></g></g><g fill="#000000" fill-opacity="1"><g transform="translate(513.266015, 257.43282)"><g><path d="M 31.703125 -154.484375 C 35.304688 -154.484375 38.304688 -153.132812 40.703125 -150.4375 C 43.097656 -147.738281 44.296875 -144.890625 44.296875 -141.890625 C 44.296875 -139.035156 43.097656 -136.257812 40.703125 -133.5625 C 38.304688 -130.863281 35.304688 -129.515625 31.703125 -129.515625 C 28.109375 -129.515625 25.148438 -130.863281 22.828125 -133.5625 C 20.503906 -136.257812 19.34375 -139.035156 19.34375 -141.890625 C 19.34375 -144.890625 20.503906 -147.738281 22.828125 -150.4375 C 25.148438 -153.132812 28.109375 -154.484375 31.703125 -154.484375 Z M 40.25 -105.453125 L 42.28125 -104.5625 L 42.28125 -23.609375 C 42.28125 -20.910156 42.351562 -18.132812 42.5 -15.28125 C 42.644531 -12.4375 43.09375 -10.414062 43.84375 -9.21875 C 44.445312 -8.320312 45.347656 -7.722656 46.546875 -7.421875 C 47.742188 -7.117188 49.09375 -6.894531 50.59375 -6.75 L 60.9375 -6.078125 L 60.9375 0.671875 C 58.832031 0.523438 56.054688 0.410156 52.609375 0.328125 C 49.171875 0.253906 45.648438 0.179688 42.046875 0.109375 C 38.453125 0.0351562 35.378906 0 32.828125 0 C 28.628906 0 23.753906 0.0703125 18.203125 0.21875 C 12.660156 0.375 8.164062 0.523438 4.71875 0.671875 L 4.71875 -6.078125 L 14.84375 -6.75 C 16.34375 -6.894531 17.765625 -7.117188 19.109375 -7.421875 C 20.460938 -7.722656 21.4375 -8.394531 22.03125 -9.4375 C 22.78125 -10.644531 23.191406 -12.742188 23.265625 -15.734375 C 23.347656 -18.734375 23.390625 -21.359375 23.390625 -23.609375 L 23.390625 -74.65625 C 23.390625 -81.851562 22.789062 -86.195312 21.59375 -87.6875 C 20.539062 -89.1875 17.988281 -89.9375 13.9375 -89.9375 L 5.171875 -89.9375 L 5.171875 -96.234375 C 11.765625 -96.984375 18.207031 -98.257812 24.5 -100.0625 C 30.800781 -101.863281 36.050781 -103.660156 40.25 -105.453125 Z M 40.25 -105.453125 "/></g></g></g><g fill="#000000" fill-opacity="1"><g transform="translate(578.701421, 257.43282)"><g><path d="M 1.34375 -96.921875 L 1.34375 -103.203125 C 5.695312 -103.054688 10.046875 -102.90625 14.390625 -102.75 C 18.734375 -102.601562 23.15625 -102.53125 27.65625 -102.53125 C 32.300781 -102.53125 36.722656 -102.601562 40.921875 -102.75 C 45.117188 -102.90625 49.390625 -103.054688 53.734375 -103.203125 L 53.734375 -96.921875 C 53.734375 -96.921875 52.457031 -96.878906 49.90625 -96.796875 C 47.363281 -96.722656 44.96875 -96.613281 42.71875 -96.46875 C 38.976562 -96.3125 37.109375 -94.738281 37.109375 -91.75 C 37.109375 -90.539062 37.289062 -89.257812 37.65625 -87.90625 C 38.03125 -86.5625 38.519531 -85.140625 39.125 -83.640625 L 65.890625 -18.890625 C 69.785156 -27.128906 73.191406 -34.695312 76.109375 -41.59375 C 79.035156 -48.488281 82.148438 -56.132812 85.453125 -64.53125 C 88.296875 -71.582031 90.351562 -76.941406 91.625 -80.609375 C 92.90625 -84.285156 93.546875 -87.546875 93.546875 -90.390625 C 93.546875 -94.285156 91.742188 -96.3125 88.140625 -96.46875 L 78.921875 -96.921875 L 78.921875 -103.203125 C 82.367188 -103.054688 85.890625 -102.90625 89.484375 -102.75 C 93.085938 -102.601562 96.613281 -102.53125 100.0625 -102.53125 C 102.757812 -102.53125 105.644531 -102.601562 108.71875 -102.75 C 111.789062 -102.90625 115.953125 -103.054688 121.203125 -103.203125 L 121.203125 -96.921875 L 114.453125 -96.46875 C 112.648438 -96.164062 111.078125 -95.488281 109.734375 -94.4375 C 108.984375 -93.84375 107.894531 -92.53125 106.46875 -90.5 C 105.039062 -88.476562 103.128906 -84.769531 100.734375 -79.375 L 75.328125 -23.390625 C 73.378906 -19.335938 71.726562 -15.210938 70.375 -11.015625 C 69.03125 -6.816406 67.535156 -2.617188 65.890625 1.578125 L 54.640625 1.578125 L 17.3125 -85.890625 C 15.8125 -89.335938 14.757812 -91.625 14.15625 -92.75 C 13.5625 -93.875 12.890625 -94.738281 12.140625 -95.34375 C 10.941406 -96.238281 7.34375 -96.765625 1.34375 -96.921875 Z M 1.34375 -96.921875 "/></g></g></g><g fill="#000000" fill-opacity="1"><g transform="translate(705.749598, 257.43282)"><g><path d="M 58.015625 -105.453125 C 65.359375 -105.453125 72.253906 -103.953125 78.703125 -100.953125 C 85.148438 -97.960938 90.429688 -93.429688 94.546875 -87.359375 C 98.671875 -81.285156 100.734375 -73.453125 100.734375 -63.859375 C 100.734375 -61.609375 100.695312 -59.734375 100.625 -58.234375 C 100.550781 -56.734375 100.4375 -55.609375 100.28125 -54.859375 C 93.09375 -53.660156 85.898438 -52.835938 78.703125 -52.390625 C 71.503906 -51.941406 65.429688 -51.71875 60.484375 -51.71875 L 26.765625 -51.71875 C 26.765625 -38.53125 30.097656 -27.847656 36.765625 -19.671875 C 43.429688 -11.503906 53.660156 -7.421875 67.453125 -7.421875 C 72.703125 -7.421875 77.570312 -8.503906 82.0625 -10.671875 C 86.5625 -12.847656 90.988281 -15.285156 95.34375 -17.984375 L 98.265625 -15.734375 L 94.4375 -9.21875 C 93.84375 -8.164062 93.171875 -7.34375 92.421875 -6.75 C 91.816406 -6.300781 90.273438 -5.363281 87.796875 -3.9375 C 85.328125 -2.507812 82.367188 -1.195312 78.921875 0 C 75.328125 1.351562 71.726562 2.441406 68.125 3.265625 C 64.53125 4.085938 61.007812 4.5 57.5625 4.5 C 41.21875 4.5 28.507812 -0.21875 19.4375 -9.65625 C 10.375 -19.101562 5.84375 -31.773438 5.84375 -47.671875 C 5.84375 -57.117188 6.78125 -64.648438 8.65625 -70.265625 C 10.53125 -75.890625 12.664062 -80.160156 15.0625 -83.078125 C 17.457031 -86.003906 19.40625 -88.144531 20.90625 -89.5 C 25.550781 -93.394531 29.523438 -96.164062 32.828125 -97.8125 C 36.128906 -99.457031 39.648438 -101.03125 43.390625 -102.53125 C 46.390625 -103.726562 49.050781 -104.515625 51.375 -104.890625 C 53.695312 -105.265625 55.910156 -105.453125 58.015625 -105.453125 Z M 27.203125 -60.71875 C 32.148438 -60.113281 36.875 -59.734375 41.375 -59.578125 C 45.875 -59.429688 50.671875 -59.359375 55.765625 -59.359375 C 59.515625 -59.359375 63.75 -59.429688 68.46875 -59.578125 C 73.1875 -59.734375 77.269531 -59.882812 80.71875 -60.03125 C 80.71875 -66.632812 79.929688 -72.820312 78.359375 -78.59375 C 76.785156 -84.363281 74.238281 -89.046875 70.71875 -92.640625 C 67.195312 -96.234375 62.515625 -98.03125 56.671875 -98.03125 C 51.867188 -98.03125 47.21875 -96.867188 42.71875 -94.546875 C 38.226562 -92.222656 34.519531 -88.515625 31.59375 -83.421875 C 28.664062 -78.328125 27.203125 -71.582031 27.203125 -63.1875 Z M 27.203125 -60.71875 "/></g></g></g><g fill="#000000" fill-opacity="1"><g transform="translate(813.459445, 257.43282)"><g><path d="M 31.703125 -163.25 L 33.734375 -161.453125 L 33.734375 -83.421875 L 34.171875 -83.421875 L 46.09375 -95.5625 C 49.394531 -98.863281 53.628906 -101.335938 58.796875 -102.984375 C 63.972656 -104.628906 68.804688 -105.453125 73.296875 -105.453125 C 81.546875 -105.453125 88.742188 -103.539062 94.890625 -99.71875 C 101.035156 -95.894531 105.796875 -90.535156 109.171875 -83.640625 C 112.546875 -76.742188 114.234375 -68.726562 114.234375 -59.59375 C 114.234375 -56.289062 113.78125 -52.460938 112.875 -48.109375 C 111.976562 -43.765625 110.554688 -39.421875 108.609375 -35.078125 C 106.804688 -31.023438 104.851562 -27.648438 102.75 -24.953125 C 100.65625 -22.253906 98.5625 -20.082031 96.46875 -18.4375 L 73.984375 -2.25 C 70.679688 0.144531 67.304688 1.566406 63.859375 2.015625 C 60.410156 2.472656 56.960938 2.703125 53.515625 2.703125 C 48.566406 2.703125 43.65625 2.0625 38.78125 0.78125 C 33.914062 -0.488281 29.535156 -2.546875 25.640625 -5.390625 L 16.640625 2.703125 L 13.046875 1.34375 C 13.335938 -1.351562 13.597656 -4.757812 13.828125 -8.875 C 14.054688 -13 14.242188 -17.160156 14.390625 -21.359375 C 14.535156 -25.554688 14.644531 -29.226562 14.71875 -32.375 C 14.800781 -35.53125 14.84375 -37.554688 14.84375 -38.453125 L 14.84375 -139.859375 C 14.84375 -142.859375 14.429688 -145.066406 13.609375 -146.484375 C 12.785156 -147.910156 11.320312 -148.625 9.21875 -148.625 L -3.375 -148.625 L -3.375 -154.921875 C 2.769531 -155.828125 8.726562 -156.878906 14.5 -158.078125 C 20.269531 -159.273438 26.003906 -161 31.703125 -163.25 Z M 33.734375 -69.484375 L 33.734375 -21.359375 C 33.734375 -19.859375 34.628906 -18.429688 36.421875 -17.078125 C 38.222656 -15.734375 40.546875 -14.390625 43.390625 -13.046875 C 46.835938 -11.546875 50.210938 -10.457031 53.515625 -9.78125 C 56.816406 -9.101562 59.363281 -8.765625 61.15625 -8.765625 C 70.457031 -8.765625 78.367188 -12.398438 84.890625 -19.671875 C 91.410156 -26.941406 94.671875 -37.847656 94.671875 -52.390625 C 94.671875 -59.285156 93.546875 -65.65625 91.296875 -71.5 C 89.046875 -77.351562 85.597656 -82.039062 80.953125 -85.5625 C 76.304688 -89.082031 70.382812 -90.84375 63.1875 -90.84375 C 59.4375 -90.84375 55.722656 -90.128906 52.046875 -88.703125 C 48.378906 -87.285156 45.125 -85.375 42.28125 -82.96875 C 39.570312 -80.570312 37.46875 -78.132812 35.96875 -75.65625 C 34.476562 -73.1875 33.734375 -71.128906 33.734375 -69.484375 Z M 33.734375 -69.484375 "/></g></g></g><g fill="#000000" fill-opacity="1"><g transform="translate(937.80927, 257.43282)"><g><path d="M 58.015625 -105.453125 C 65.359375 -105.453125 72.253906 -103.953125 78.703125 -100.953125 C 85.148438 -97.960938 90.429688 -93.429688 94.546875 -87.359375 C 98.671875 -81.285156 100.734375 -73.453125 100.734375 -63.859375 C 100.734375 -61.609375 100.695312 -59.734375 100.625 -58.234375 C 100.550781 -56.734375 100.4375 -55.609375 100.28125 -54.859375 C 93.09375 -53.660156 85.898438 -52.835938 78.703125 -52.390625 C 71.503906 -51.941406 65.429688 -51.71875 60.484375 -51.71875 L 26.765625 -51.71875 C 26.765625 -38.53125 30.097656 -27.847656 36.765625 -19.671875 C 43.429688 -11.503906 53.660156 -7.421875 67.453125 -7.421875 C 72.703125 -7.421875 77.570312 -8.503906 82.0625 -10.671875 C 86.5625 -12.847656 90.988281 -15.285156 95.34375 -17.984375 L 98.265625 -15.734375 L 94.4375 -9.21875 C 93.84375 -8.164062 93.171875 -7.34375 92.421875 -6.75 C 91.816406 -6.300781 90.273438 -5.363281 87.796875 -3.9375 C 85.328125 -2.507812 82.367188 -1.195312 78.921875 0 C 75.328125 1.351562 71.726562 2.441406 68.125 3.265625 C 64.53125 4.085938 61.007812 4.5 57.5625 4.5 C 41.21875 4.5 28.507812 -0.21875 19.4375 -9.65625 C 10.375 -19.101562 5.84375 -31.773438 5.84375 -47.671875 C 5.84375 -57.117188 6.78125 -64.648438 8.65625 -70.265625 C 10.53125 -75.890625 12.664062 -80.160156 15.0625 -83.078125 C 17.457031 -86.003906 19.40625 -88.144531 20.90625 -89.5 C 25.550781 -93.394531 29.523438 -96.164062 32.828125 -97.8125 C 36.128906 -99.457031 39.648438 -101.03125 43.390625 -102.53125 C 46.390625 -103.726562 49.050781 -104.515625 51.375 -104.890625 C 53.695312 -105.265625 55.910156 -105.453125 58.015625 -105.453125 Z M 27.203125 -60.71875 C 32.148438 -60.113281 36.875 -59.734375 41.375 -59.578125 C 45.875 -59.429688 50.671875 -59.359375 55.765625 -59.359375 C 59.515625 -59.359375 63.75 -59.429688 68.46875 -59.578125 C 73.1875 -59.734375 77.269531 -59.882812 80.71875 -60.03125 C 80.71875 -66.632812 79.929688 -72.820312 78.359375 -78.59375 C 76.785156 -84.363281 74.238281 -89.046875 70.71875 -92.640625 C 67.195312 -96.234375 62.515625 -98.03125 56.671875 -98.03125 C 51.867188 -98.03125 47.21875 -96.867188 42.71875 -94.546875 C 38.226562 -92.222656 34.519531 -88.515625 31.59375 -83.421875 C 28.664062 -78.328125 27.203125 -71.582031 27.203125 -63.1875 Z M 27.203125 -60.71875 "/></g></g></g><g fill="#000000" fill-opacity="1"><g transform="translate(1045.519162, 257.43282)"><g><path d="M 40.25 -163.25 L 42.28125 -161.453125 L 42.28125 -23.609375 C 42.28125 -20.910156 42.351562 -18.132812 42.5 -15.28125 C 42.644531 -12.4375 43.09375 -10.414062 43.84375 -9.21875 C 44.445312 -8.320312 45.347656 -7.722656 46.546875 -7.421875 C 47.742188 -7.117188 49.09375 -6.894531 50.59375 -6.75 L 60.9375 -6.078125 L 60.9375 0.671875 C 58.832031 0.523438 56.054688 0.410156 52.609375 0.328125 C 49.171875 0.253906 45.648438 0.179688 42.046875 0.109375 C 38.453125 0.0351562 35.378906 0 32.828125 0 C 28.628906 0 23.753906 0.0703125 18.203125 0.21875 C 12.660156 0.375 8.164062 0.523438 4.71875 0.671875 L 4.71875 -6.078125 L 14.84375 -6.75 C 16.34375 -6.894531 17.765625 -7.117188 19.109375 -7.421875 C 20.460938 -7.722656 21.4375 -8.394531 22.03125 -9.4375 C 22.78125 -10.644531 23.191406 -12.742188 23.265625 -15.734375 C 23.347656 -18.734375 23.390625 -21.359375 23.390625 -23.609375 L 23.390625 -138.515625 C 23.390625 -142.410156 22.9375 -145.109375 22.03125 -146.609375 C 21.132812 -147.953125 19.488281 -148.625 17.09375 -148.625 L 5.171875 -148.625 L 5.171875 -154.921875 C 12.210938 -155.972656 18.734375 -157.171875 24.734375 -158.515625 C 30.734375 -159.867188 35.90625 -161.445312 40.25 -163.25 Z M 40.25 -163.25 "/></g></g></g><g fill="#000000" fill-opacity="1"><g transform="translate(1110.954568, 257.43282)"><g><path d="M 40.703125 -139.640625 L 43.390625 -137.171875 C 42.796875 -132.972656 42.234375 -127.945312 41.703125 -122.09375 C 41.179688 -116.25 40.921875 -109.726562 40.921875 -102.53125 L 40.921875 -96.6875 L 71.734375 -98.03125 L 69.703125 -85.890625 L 40.921875 -85.890625 L 40.921875 -26.765625 C 40.921875 -22.109375 41.742188 -18.394531 43.390625 -15.625 C 45.046875 -12.851562 48.347656 -11.46875 53.296875 -11.46875 C 55.992188 -11.46875 58.390625 -11.914062 60.484375 -12.8125 C 62.585938 -13.71875 64.613281 -14.691406 66.5625 -15.734375 L 69.484375 -11.921875 L 58.6875 0 C 57.9375 0.894531 56.210938 1.566406 53.515625 2.015625 C 50.816406 2.472656 47.671875 2.703125 44.078125 2.703125 C 36.429688 2.703125 30.84375 0.566406 27.3125 -3.703125 C 23.789062 -7.984375 22.03125 -13.71875 22.03125 -20.90625 L 22.03125 -85.890625 L 4.953125 -85 L 4.953125 -89.71875 L 22.484375 -97.59375 L 22.484375 -116.03125 C 22.484375 -117.976562 22.40625 -120.523438 22.25 -123.671875 C 22.101562 -126.816406 21.882812 -129.289062 21.59375 -131.09375 C 25.488281 -132.289062 29.046875 -133.640625 32.265625 -135.140625 C 35.492188 -136.640625 38.304688 -138.140625 40.703125 -139.640625 Z M 40.703125 -139.640625 "/></g></g></g></svg>