<svg xmlns="http://www.w3.org/2000/svg" xmlns:xlink="http://www.w3.org/1999/xlink" width="1920" zoomAndPan="magnify" viewBox="0 0 1440 809.999993" height="1080" preserveAspectRatio="xMidYMid meet" version="1.0"><defs><g/><clipPath id="339ee51172"><path d="M 92 307.851562 L 243 307.851562 L 243 444 L 92 444 Z M 92 307.851562 " clip-rule="nonzero"/></clipPath><clipPath id="b4a8274241"><path d="M 153.894531 435.832031 L 94.195312 331.359375 C 91.410156 326.484375 91.429688 320.496094 94.25 315.636719 C 97.066406 310.78125 102.257812 307.792969 107.875 307.792969 L 226.851562 307.792969 C 232.464844 307.792969 237.65625 310.78125 240.476562 315.636719 C 243.292969 320.496094 243.3125 326.484375 240.527344 331.359375 L 180.828125 435.832031 C 178.066406 440.664062 172.929688 443.648438 167.363281 443.648438 C 161.796875 443.648438 156.65625 440.664062 153.894531 435.832031 Z M 153.894531 435.832031 " clip-rule="nonzero"/></clipPath><clipPath id="b85a0b8718"><path d="M 132.695312 389.964844 L 202.0625 389.964844 L 202.0625 459.332031 L 132.695312 459.332031 Z M 132.695312 389.964844 " clip-rule="nonzero"/></clipPath><clipPath id="04f85a19e9"><path d="M 146.425781 403.746094 L 188.296875 403.746094 L 188.296875 445.621094 L 146.425781 445.621094 Z M 146.425781 403.746094 " clip-rule="nonzero"/></clipPath><clipPath id="879610df9f"><path d="M 167.363281 403.746094 C 155.800781 403.746094 146.425781 413.121094 146.425781 424.683594 C 146.425781 436.246094 155.800781 445.621094 167.363281 445.621094 C 178.925781 445.621094 188.296875 436.246094 188.296875 424.683594 C 188.296875 413.121094 178.925781 403.746094 167.363281 403.746094 Z M 167.363281 403.746094 " clip-rule="nonzero"/></clipPath><clipPath id="b0096856f7"><path d="M 159.015625 416.339844 L 175.707031 416.339844 L 175.707031 433.03125 L 159.015625 433.03125 Z M 159.015625 416.339844 " clip-rule="nonzero"/></clipPath><clipPath id="ababa967af"><path d="M 167.363281 416.339844 C 162.753906 416.339844 159.015625 420.074219 159.015625 424.683594 C 159.015625 429.292969 162.753906 433.03125 167.363281 433.03125 C 171.972656 433.03125 175.707031 429.292969 175.707031 424.683594 C 175.707031 420.074219 171.972656 416.339844 167.363281 416.339844 Z M 167.363281 416.339844 " clip-rule="nonzero"/></clipPath><clipPath id="ebb3fa8501"><path d="M 191.855469 289.464844 L 261.222656 289.464844 L 261.222656 358.832031 L 191.855469 358.832031 Z M 191.855469 289.464844 " clip-rule="nonzero"/></clipPath><clipPath id="687cc06614"><path d="M 205.585938 303.25 L 247.460938 303.25 L 247.460938 345.121094 L 205.585938 345.121094 Z M 205.585938 303.25 " clip-rule="nonzero"/></clipPath><clipPath id="7b4ae69155"><path d="M 226.523438 303.25 C 214.960938 303.25 205.585938 312.621094 205.585938 324.183594 C 205.585938 335.746094 214.960938 345.121094 226.523438 345.121094 C 238.085938 345.121094 247.460938 335.746094 247.460938 324.183594 C 247.460938 312.621094 238.085938 303.25 226.523438 303.25 Z M 226.523438 303.25 " clip-rule="nonzero"/></clipPath><clipPath id="8e4049a50f"><path d="M 218.179688 315.839844 L 234.871094 315.839844 L 234.871094 332.53125 L 218.179688 332.53125 Z M 218.179688 315.839844 " clip-rule="nonzero"/></clipPath><clipPath id="1cac8d97c0"><path d="M 226.523438 315.839844 C 221.914062 315.839844 218.179688 319.578125 218.179688 324.1875 C 218.179688 328.796875 221.914062 332.53125 226.523438 332.53125 C 231.132812 332.53125 234.871094 328.796875 234.871094 324.1875 C 234.871094 319.578125 231.132812 315.839844 226.523438 315.839844 Z M 226.523438 315.839844 " clip-rule="nonzero"/></clipPath><clipPath id="e2816f1a47"><path d="M 74.972656 289.464844 L 144.339844 289.464844 L 144.339844 358.832031 L 74.972656 358.832031 Z M 74.972656 289.464844 " clip-rule="nonzero"/></clipPath><clipPath id="912be4d427"><path d="M 88.703125 303.25 L 130.574219 303.25 L 130.574219 345.121094 L 88.703125 345.121094 Z M 88.703125 303.25 " clip-rule="nonzero"/></clipPath><clipPath id="56127b8d8c"><path d="M 109.640625 303.25 C 98.078125 303.25 88.703125 312.621094 88.703125 324.183594 C 88.703125 335.746094 98.078125 345.121094 109.640625 345.121094 C 121.203125 345.121094 130.574219 335.746094 130.574219 324.183594 C 130.574219 312.621094 121.203125 303.25 109.640625 303.25 Z M 109.640625 303.25 " clip-rule="nonzero"/></clipPath><clipPath id="7ec9239bb1"><path d="M 101.296875 315.839844 L 117.984375 315.839844 L 117.984375 332.53125 L 101.296875 332.53125 Z M 101.296875 315.839844 " clip-rule="nonzero"/></clipPath><clipPath id="36e9f8bf13"><path d="M 109.640625 315.839844 C 105.03125 315.839844 101.296875 319.578125 101.296875 324.1875 C 101.296875 328.796875 105.03125 332.53125 109.640625 332.53125 C 114.25 332.53125 117.984375 328.796875 117.984375 324.1875 C 117.984375 319.578125 114.25 315.839844 109.640625 315.839844 Z M 109.640625 315.839844 " clip-rule="nonzero"/></clipPath></defs><g clip-path="url(#339ee51172)"><g clip-path="url(#b4a8274241)"><path stroke-linecap="butt" transform="matrix(-0.753987, 0, 0, -0.753987, 253.994233, 459.398781)" fill="none" stroke-linejoin="miter" d="M 132.76055 31.256184 L 211.938619 169.81651 C 215.632525 176.28214 215.606621 184.224297 211.866088 190.669204 C 208.130736 197.108931 201.245461 201.072238 193.79548 201.072238 L 35.998867 201.072238 C 28.554066 201.072238 21.668792 197.108931 17.928258 190.669204 C 14.192906 184.224297 14.167002 176.28214 17.860908 169.81651 L 97.038978 31.256184 C 100.701799 24.847542 107.514542 20.889415 114.897173 20.889415 C 122.279804 20.889415 129.097729 24.847542 132.76055 31.256184 Z M 132.76055 31.256184 " stroke="#000000" stroke-width="36" stroke-opacity="1" stroke-miterlimit="4"/></g></g><g clip-path="url(#b85a0b8718)"><path fill="#000000" d="M 168.664062 390.015625 C 172.859375 390.171875 176.894531 391.117188 180.617188 392.632812 L 181.351562 394.519531 L 179.777344 397.921875 L 180.460938 399.859375 C 182.503906 400.957031 184.445312 402.265625 186.125 403.835938 L 188.167969 403.835938 L 190.84375 401.167969 L 192.835938 401.167969 C 195.613281 404.152344 197.816406 407.660156 199.441406 411.480469 L 198.601562 413.3125 L 195.089844 414.621094 L 194.199219 416.453125 C 194.878906 418.601562 195.296875 420.902344 195.402344 423.257812 L 196.871094 424.671875 L 200.648438 424.671875 L 202.0625 426.085938 C 201.90625 430.273438 200.960938 434.304688 199.441406 438.023438 L 197.554688 438.703125 L 194.144531 437.132812 L 192.207031 437.8125 C 191.105469 439.855469 189.792969 441.792969 188.21875 443.46875 L 188.273438 445.507812 L 190.945312 448.179688 L 190.945312 450.167969 C 187.957031 452.941406 184.445312 455.140625 180.617188 456.710938 L 178.78125 455.875 L 177.472656 452.367188 L 175.636719 451.476562 C 173.433594 452.15625 171.179688 452.578125 168.820312 452.679688 L 167.40625 454.148438 L 167.40625 457.917969 L 165.988281 459.328125 C 161.796875 459.171875 157.757812 458.230469 154.035156 456.660156 L 153.355469 454.773438 L 154.925781 451.371094 L 154.246094 449.433594 C 152.199219 448.335938 150.261719 447.027344 148.582031 445.457031 L 146.539062 445.507812 L 143.863281 448.179688 L 141.871094 448.179688 C 139.09375 445.195312 136.890625 441.6875 135.316406 437.867188 L 136.15625 436.035156 L 139.667969 434.722656 L 140.558594 432.890625 C 139.878906 430.746094 139.460938 428.441406 139.355469 426.085938 L 137.886719 424.671875 L 134.109375 424.671875 L 132.695312 423.257812 C 132.851562 419.070312 133.796875 415.039062 135.316406 411.324219 L 137.203125 410.644531 L 140.613281 412.214844 L 142.550781 411.53125 C 143.652344 409.492188 144.964844 407.554688 146.539062 405.878906 L 146.539062 403.835938 L 143.863281 401.167969 L 143.863281 399.179688 C 146.851562 396.402344 150.363281 394.203125 154.191406 392.582031 L 156.027344 393.417969 L 157.339844 396.925781 L 159.171875 397.816406 C 161.375 397.136719 163.628906 396.71875 165.988281 396.613281 L 167.40625 395.148438 L 167.40625 391.378906 L 168.820312 389.964844 Z M 167.246094 404.832031 C 178.207031 404.832031 187.121094 413.730469 187.121094 424.671875 C 187.121094 435.613281 178.207031 444.515625 167.246094 444.515625 C 156.289062 444.515625 147.375 435.613281 147.375 424.671875 C 147.375 413.730469 156.289062 404.832031 167.246094 404.832031 Z M 167.246094 404.832031 " fill-opacity="1" fill-rule="evenodd"/></g><g clip-path="url(#04f85a19e9)"><g clip-path="url(#879610df9f)"><path fill="#ffffff" d="M 146.425781 403.746094 L 188.296875 403.746094 L 188.296875 445.621094 L 146.425781 445.621094 Z M 146.425781 403.746094 " fill-opacity="1" fill-rule="nonzero"/></g></g><g clip-path="url(#b0096856f7)"><g clip-path="url(#ababa967af)"><path fill="#222222" d="M 159.015625 416.339844 L 175.707031 416.339844 L 175.707031 433.03125 L 159.015625 433.03125 Z M 159.015625 416.339844 " fill-opacity="1" fill-rule="nonzero"/></g></g><g clip-path="url(#ebb3fa8501)"><path fill="#000000" d="M 227.824219 289.519531 C 232.019531 289.675781 236.054688 290.617188 239.777344 292.136719 L 240.511719 294.019531 L 238.941406 297.421875 L 239.621094 299.359375 C 241.667969 300.460938 243.605469 301.769531 245.285156 303.339844 L 247.328125 303.339844 L 250.003906 300.667969 L 251.996094 300.667969 C 254.773438 303.652344 256.976562 307.160156 258.601562 310.980469 L 257.761719 312.8125 L 254.25 314.121094 L 253.359375 315.957031 C 254.039062 318.101562 254.460938 320.40625 254.566406 322.761719 L 256.03125 324.175781 L 259.808594 324.175781 L 261.222656 325.585938 C 261.066406 329.777344 260.121094 333.808594 258.601562 337.523438 L 256.714844 338.203125 L 253.304688 336.632812 L 251.367188 337.316406 C 250.265625 339.355469 248.953125 341.292969 247.382812 342.96875 L 247.433594 345.011719 L 250.109375 347.679688 L 250.109375 349.667969 C 247.121094 352.445312 243.605469 354.644531 239.777344 356.214844 L 237.945312 355.375 L 236.632812 351.867188 L 234.796875 350.976562 C 232.597656 351.660156 230.339844 352.078125 227.980469 352.183594 L 226.566406 353.648438 L 226.566406 357.417969 L 225.152344 358.832031 C 220.957031 358.675781 216.917969 357.730469 213.195312 356.160156 L 212.515625 354.277344 L 214.085938 350.875 L 213.40625 348.9375 C 211.359375 347.835938 209.421875 346.527344 207.742188 344.957031 L 205.699219 345.011719 L 203.023438 347.679688 L 201.03125 347.679688 C 198.253906 344.695312 196.050781 341.1875 194.476562 337.367188 L 195.316406 335.535156 L 198.828125 334.226562 L 199.722656 332.394531 C 199.039062 330.246094 198.621094 327.945312 198.515625 325.585938 L 197.046875 324.175781 L 193.273438 324.175781 L 191.855469 322.761719 C 192.015625 318.574219 192.957031 314.542969 194.476562 310.824219 L 196.367188 310.144531 L 199.773438 311.714844 L 201.714844 311.035156 C 202.816406 308.992188 204.125 307.054688 205.699219 305.378906 L 205.699219 303.339844 L 203.023438 300.667969 L 203.023438 298.679688 C 206.011719 295.90625 209.527344 293.707031 213.355469 292.082031 L 215.1875 292.921875 L 216.5 296.429688 L 218.335938 297.316406 C 220.535156 296.636719 222.792969 296.21875 225.152344 296.113281 L 226.566406 294.648438 L 226.566406 290.878906 L 227.980469 289.464844 Z M 226.410156 304.332031 C 237.367188 304.332031 246.28125 313.234375 246.28125 324.175781 C 246.28125 335.117188 237.367188 344.015625 226.410156 344.015625 C 215.449219 344.015625 206.539062 335.117188 206.539062 324.175781 C 206.539062 313.234375 215.449219 304.332031 226.410156 304.332031 Z M 226.410156 304.332031 " fill-opacity="1" fill-rule="evenodd"/></g><g clip-path="url(#687cc06614)"><g clip-path="url(#7b4ae69155)"><path fill="#ffffff" d="M 205.585938 303.25 L 247.460938 303.25 L 247.460938 345.121094 L 205.585938 345.121094 Z M 205.585938 303.25 " fill-opacity="1" fill-rule="nonzero"/></g></g><g clip-path="url(#8e4049a50f)"><g clip-path="url(#1cac8d97c0)"><path fill="#222222" d="M 218.179688 315.839844 L 234.871094 315.839844 L 234.871094 332.53125 L 218.179688 332.53125 Z M 218.179688 315.839844 " fill-opacity="1" fill-rule="nonzero"/></g></g><g clip-path="url(#e2816f1a47)"><path fill="#000000" d="M 110.941406 289.519531 C 115.136719 289.675781 119.171875 290.617188 122.894531 292.136719 L 123.628906 294.019531 L 122.058594 297.421875 L 122.738281 299.359375 C 124.78125 300.460938 126.722656 301.769531 128.402344 303.339844 L 130.445312 303.339844 L 133.121094 300.667969 L 135.113281 300.667969 C 137.890625 303.652344 140.09375 307.160156 141.71875 310.980469 L 140.878906 312.8125 L 137.367188 314.121094 L 136.476562 315.957031 C 137.15625 318.101562 137.578125 320.40625 137.679688 322.761719 L 139.148438 324.175781 L 142.925781 324.175781 L 144.339844 325.585938 C 144.183594 329.777344 143.238281 333.808594 141.71875 337.523438 L 139.832031 338.203125 L 136.421875 336.632812 L 134.484375 337.316406 C 133.382812 339.355469 132.070312 341.292969 130.5 342.96875 L 130.550781 345.011719 L 133.222656 347.679688 L 133.222656 349.667969 C 130.234375 352.445312 126.722656 354.644531 122.894531 356.214844 L 121.058594 355.375 L 119.75 351.867188 L 117.914062 350.976562 C 115.710938 351.660156 113.457031 352.078125 111.097656 352.183594 L 109.683594 353.648438 L 109.683594 357.417969 L 108.265625 358.832031 C 104.074219 358.675781 100.035156 357.730469 96.3125 356.160156 L 95.632812 354.277344 L 97.203125 350.875 L 96.523438 348.9375 C 94.476562 347.835938 92.539062 346.527344 90.859375 344.957031 L 88.816406 345.011719 L 86.140625 347.679688 L 84.148438 347.679688 C 81.371094 344.695312 79.167969 341.1875 77.59375 337.367188 L 78.433594 335.535156 L 81.945312 334.226562 L 82.839844 332.394531 C 82.15625 330.246094 81.738281 327.945312 81.632812 325.585938 L 80.164062 324.175781 L 76.390625 324.175781 L 74.972656 322.761719 C 75.128906 318.574219 76.074219 314.542969 77.59375 310.824219 L 79.480469 310.144531 L 82.890625 311.714844 L 84.832031 311.035156 C 85.929688 308.992188 87.242188 307.054688 88.816406 305.378906 L 88.816406 303.339844 L 86.140625 300.667969 L 86.140625 298.679688 C 89.128906 295.90625 92.644531 293.707031 96.46875 292.082031 L 98.304688 292.921875 L 99.617188 296.429688 L 101.449219 297.316406 C 103.652344 296.636719 105.90625 296.21875 108.265625 296.113281 L 109.683594 294.648438 L 109.683594 290.878906 L 111.097656 289.464844 Z M 109.527344 304.332031 C 120.484375 304.332031 129.398438 313.234375 129.398438 324.175781 C 129.398438 335.117188 120.484375 344.015625 109.527344 344.015625 C 98.566406 344.015625 89.652344 335.117188 89.652344 324.175781 C 89.652344 313.234375 98.566406 304.332031 109.527344 304.332031 Z M 109.527344 304.332031 " fill-opacity="1" fill-rule="evenodd"/></g><g clip-path="url(#912be4d427)"><g clip-path="url(#56127b8d8c)"><path fill="#ffffff" d="M 88.703125 303.25 L 130.574219 303.25 L 130.574219 345.121094 L 88.703125 345.121094 Z M 88.703125 303.25 " fill-opacity="1" fill-rule="nonzero"/></g></g><g clip-path="url(#7ec9239bb1)"><g clip-path="url(#36e9f8bf13)"><path fill="#222222" d="M 101.296875 315.839844 L 117.984375 315.839844 L 117.984375 332.53125 L 101.296875 332.53125 Z M 101.296875 315.839844 " fill-opacity="1" fill-rule="nonzero"/></g></g><g fill="#000000" fill-opacity="1"><g transform="translate(283.90004, 455.752467)"><g><path d="M 40.84375 0 C 39.320312 0 36.773438 0.0351562 33.203125 0.109375 C 29.628906 0.191406 25.941406 0.269531 22.140625 0.34375 C 18.335938 0.414062 15.289062 0.53125 13 0.6875 L 13 -4.5625 L 19.625 -7.984375 C 22.207031 -9.203125 23.878906 -11.140625 24.640625 -13.796875 C 25.398438 -16.460938 25.78125 -19.242188 25.78125 -22.140625 L 25.78125 -130.296875 C 25.78125 -140.648438 24.71875 -146.660156 22.59375 -148.328125 C 21.53125 -149.085938 20.160156 -149.582031 18.484375 -149.8125 C 16.804688 -150.039062 15.285156 -150.234375 13.921875 -150.390625 L 5.015625 -151.078125 L 5.015625 -157.921875 C 9.734375 -157.921875 14.71875 -157.84375 19.96875 -157.6875 C 25.21875 -157.53125 30.085938 -157.414062 34.578125 -157.34375 C 39.066406 -157.269531 42.453125 -157.234375 44.734375 -157.234375 C 53.097656 -157.234375 61.648438 -157.347656 70.390625 -157.578125 C 79.140625 -157.804688 86.253906 -157.921875 91.734375 -157.921875 C 107.859375 -157.921875 121.890625 -155.03125 133.828125 -149.25 C 145.773438 -143.46875 155.019531 -135.363281 161.5625 -124.9375 C 168.101562 -114.519531 171.375 -102.3125 171.375 -88.3125 C 171.375 -84.207031 170.914062 -79.148438 170 -73.140625 C 169.09375 -67.128906 167.5 -60.773438 165.21875 -54.078125 C 162.9375 -47.390625 159.625 -40.8125 155.28125 -34.34375 C 150.945312 -27.875 145.394531 -22.015625 138.625 -16.765625 C 131.863281 -11.523438 123.578125 -7.304688 113.765625 -4.109375 C 103.953125 -0.910156 92.347656 0.6875 78.953125 0.6875 C 73.484375 0.6875 67.859375 0.570312 62.078125 0.34375 C 56.296875 0.113281 49.21875 0 40.84375 0 Z M 47.46875 -146.96875 L 47.46875 -11.1875 C 51.425781 -10.269531 56.332031 -9.734375 62.1875 -9.578125 C 68.039062 -9.429688 72.945312 -9.359375 76.90625 -9.359375 C 90.90625 -9.359375 103.148438 -12.054688 113.640625 -17.453125 C 124.140625 -22.859375 132.316406 -30.960938 138.171875 -41.765625 C 144.035156 -52.566406 146.96875 -65.953125 146.96875 -81.921875 C 146.96875 -98.660156 144.226562 -111.894531 138.75 -121.625 C 133.269531 -131.363281 125.28125 -138.320312 114.78125 -142.5 C 104.289062 -146.6875 91.585938 -148.78125 76.671875 -148.78125 C 71.960938 -148.78125 66.984375 -148.703125 61.734375 -148.546875 C 56.484375 -148.398438 51.726562 -147.875 47.46875 -146.96875 Z M 47.46875 -146.96875 "/></g></g></g><g fill="#000000" fill-opacity="1"><g transform="translate(460.527818, 455.752467)"><g><path d="M 42.90625 -62.53125 L 42.90625 -24.1875 C 42.90625 -19.46875 43.019531 -16.003906 43.25 -13.796875 C 43.476562 -11.597656 43.894531 -10.117188 44.5 -9.359375 C 45.5625 -7.984375 48.601562 -7.144531 53.625 -6.84375 L 65.5 -6.15625 L 65.5 0.6875 C 62.457031 0.53125 58.914062 0.414062 54.875 0.34375 C 50.84375 0.269531 46.890625 0.191406 43.015625 0.109375 C 39.140625 0.0351562 35.90625 0 33.3125 0 C 29.050781 0 24.109375 0.0703125 18.484375 0.21875 C 12.859375 0.375 8.296875 0.53125 4.796875 0.6875 L 4.796875 -6.15625 L 15.0625 -6.84375 C 16.582031 -7 18.023438 -7.226562 19.390625 -7.53125 C 20.765625 -7.832031 21.753906 -8.515625 22.359375 -9.578125 C 23.117188 -10.796875 23.535156 -12.925781 23.609375 -15.96875 C 23.691406 -19.007812 23.734375 -21.675781 23.734375 -23.96875 L 23.734375 -75.984375 C 23.734375 -83.140625 23.125 -87.476562 21.90625 -89 C 20.84375 -90.519531 18.257812 -91.28125 14.15625 -91.28125 L 5.25 -91.28125 L 5.25 -97.671875 C 12.09375 -98.429688 18.671875 -99.722656 24.984375 -101.546875 C 31.296875 -103.367188 36.582031 -105.195312 40.84375 -107.03125 L 42.90625 -106.109375 L 42.90625 -83.0625 L 43.359375 -83.0625 L 55.6875 -97.671875 C 58.726562 -101.171875 62 -103.601562 65.5 -104.96875 C 69 -106.34375 72.113281 -107.03125 74.84375 -107.03125 C 76.519531 -107.03125 78.421875 -106.800781 80.546875 -106.34375 C 82.679688 -105.882812 84.28125 -105.273438 85.34375 -104.515625 L 83.296875 -77.125 L 78.5 -77.125 C 77.28125 -79.863281 75.414062 -82.296875 72.90625 -84.421875 C 70.394531 -86.554688 67.085938 -87.625 62.984375 -87.625 C 60.398438 -87.625 57.925781 -86.976562 55.5625 -85.6875 C 53.207031 -84.394531 51.191406 -82.835938 49.515625 -81.015625 C 47.847656 -79.035156 46.328125 -76.484375 44.953125 -73.359375 C 43.585938 -70.242188 42.90625 -66.632812 42.90625 -62.53125 Z M 42.90625 -62.53125 "/></g></g></g><g fill="#000000" fill-opacity="1"><g transform="translate(550.667298, 455.752467)"><g><path d="M 32.171875 -156.78125 C 35.828125 -156.78125 38.867188 -155.410156 41.296875 -152.671875 C 43.734375 -149.929688 44.953125 -147.039062 44.953125 -144 C 44.953125 -141.101562 43.734375 -138.285156 41.296875 -135.546875 C 38.867188 -132.804688 35.828125 -131.4375 32.171875 -131.4375 C 28.523438 -131.4375 25.519531 -132.804688 23.15625 -135.546875 C 20.800781 -138.285156 19.625 -141.101562 19.625 -144 C 19.625 -147.039062 20.800781 -149.929688 23.15625 -152.671875 C 25.519531 -155.410156 28.523438 -156.78125 32.171875 -156.78125 Z M 40.84375 -107.03125 L 42.90625 -106.109375 L 42.90625 -23.96875 C 42.90625 -21.226562 42.976562 -18.410156 43.125 -15.515625 C 43.28125 -12.628906 43.738281 -10.578125 44.5 -9.359375 C 45.101562 -8.441406 46.015625 -7.832031 47.234375 -7.53125 C 48.453125 -7.226562 49.820312 -7 51.34375 -6.84375 L 61.84375 -6.15625 L 61.84375 0.6875 C 59.707031 0.53125 56.890625 0.414062 53.390625 0.34375 C 49.898438 0.269531 46.328125 0.191406 42.671875 0.109375 C 39.023438 0.0351562 35.90625 0 33.3125 0 C 29.050781 0 24.109375 0.0703125 18.484375 0.21875 C 12.859375 0.375 8.296875 0.53125 4.796875 0.6875 L 4.796875 -6.15625 L 15.0625 -6.84375 C 16.582031 -7 18.023438 -7.226562 19.390625 -7.53125 C 20.765625 -7.832031 21.753906 -8.515625 22.359375 -9.578125 C 23.117188 -10.796875 23.535156 -12.925781 23.609375 -15.96875 C 23.691406 -19.007812 23.734375 -21.675781 23.734375 -23.96875 L 23.734375 -75.765625 C 23.734375 -83.066406 23.125 -87.476562 21.90625 -89 C 20.84375 -90.519531 18.257812 -91.28125 14.15625 -91.28125 L 5.25 -91.28125 L 5.25 -97.671875 C 11.945312 -98.429688 18.488281 -99.722656 24.875 -101.546875 C 31.257812 -103.367188 36.582031 -105.195312 40.84375 -107.03125 Z M 40.84375 -107.03125 "/></g></g></g><g fill="#000000" fill-opacity="1"><g transform="translate(617.073843, 455.752467)"><g><path d="M 1.375 -98.359375 L 1.375 -104.75 C 5.78125 -104.59375 10.1875 -104.4375 14.59375 -104.28125 C 19.007812 -104.132812 23.5 -104.0625 28.0625 -104.0625 C 32.78125 -104.0625 37.269531 -104.132812 41.53125 -104.28125 C 45.789062 -104.4375 50.128906 -104.59375 54.546875 -104.75 L 54.546875 -98.359375 C 54.546875 -98.359375 53.25 -98.316406 50.65625 -98.234375 C 48.070312 -98.160156 45.640625 -98.050781 43.359375 -97.90625 C 39.554688 -97.75 37.65625 -96.148438 37.65625 -93.109375 C 37.65625 -91.890625 37.84375 -90.59375 38.21875 -89.21875 C 38.601562 -87.851562 39.097656 -86.410156 39.703125 -84.890625 L 66.859375 -19.171875 C 70.816406 -27.535156 74.28125 -35.21875 77.25 -42.21875 C 80.21875 -49.21875 83.375 -56.976562 86.71875 -65.5 C 89.601562 -72.644531 91.691406 -78.082031 92.984375 -81.8125 C 94.285156 -85.539062 94.9375 -88.847656 94.9375 -91.734375 C 94.9375 -95.691406 93.109375 -97.75 89.453125 -97.90625 L 80.09375 -98.359375 L 80.09375 -104.75 C 83.59375 -104.59375 87.164062 -104.4375 90.8125 -104.28125 C 94.46875 -104.132812 98.046875 -104.0625 101.546875 -104.0625 C 104.285156 -104.0625 107.210938 -104.132812 110.328125 -104.28125 C 113.453125 -104.4375 117.675781 -104.59375 123 -104.75 L 123 -98.359375 L 116.15625 -97.90625 C 114.332031 -97.59375 112.734375 -96.90625 111.359375 -95.84375 C 110.597656 -95.238281 109.492188 -93.90625 108.046875 -91.84375 C 106.609375 -89.789062 104.671875 -86.03125 102.234375 -80.5625 L 76.453125 -23.734375 C 74.472656 -19.628906 72.796875 -15.445312 71.421875 -11.1875 C 70.054688 -6.925781 68.535156 -2.664062 66.859375 1.59375 L 55.453125 1.59375 L 17.578125 -87.171875 C 16.054688 -90.671875 14.988281 -92.988281 14.375 -94.125 C 13.769531 -95.269531 13.085938 -96.148438 12.328125 -96.765625 C 11.109375 -97.671875 7.457031 -98.203125 1.375 -98.359375 Z M 1.375 -98.359375 "/></g></g></g><g fill="#000000" fill-opacity="1"><g transform="translate(746.00756, 455.752467)"><g><path d="M 58.875 -107.03125 C 66.332031 -107.03125 73.332031 -105.507812 79.875 -102.46875 C 86.414062 -99.425781 91.773438 -94.820312 95.953125 -88.65625 C 100.140625 -82.5 102.234375 -74.550781 102.234375 -64.8125 C 102.234375 -62.53125 102.191406 -60.628906 102.109375 -59.109375 C 102.035156 -57.585938 101.925781 -56.445312 101.78125 -55.6875 C 94.476562 -54.46875 87.175781 -53.628906 79.875 -53.171875 C 72.570312 -52.710938 66.410156 -52.484375 61.390625 -52.484375 L 27.15625 -52.484375 C 27.15625 -39.097656 30.539062 -28.257812 37.3125 -19.96875 C 44.082031 -11.675781 54.460938 -7.53125 68.453125 -7.53125 C 73.785156 -7.53125 78.734375 -8.632812 83.296875 -10.84375 C 87.859375 -13.050781 92.347656 -15.519531 96.765625 -18.25 L 99.71875 -15.96875 L 95.84375 -9.359375 C 95.238281 -8.296875 94.554688 -7.457031 93.796875 -6.84375 C 93.179688 -6.382812 91.617188 -5.429688 89.109375 -3.984375 C 86.597656 -2.546875 83.59375 -1.21875 80.09375 0 C 76.445312 1.363281 72.796875 2.460938 69.140625 3.296875 C 65.492188 4.140625 61.921875 4.5625 58.421875 4.5625 C 41.835938 4.5625 28.941406 -0.226562 19.734375 -9.8125 C 10.535156 -19.394531 5.9375 -32.25 5.9375 -48.375 C 5.9375 -57.957031 6.882812 -65.601562 8.78125 -71.3125 C 10.6875 -77.019531 12.851562 -81.351562 15.28125 -84.3125 C 17.71875 -87.28125 19.695312 -89.453125 21.21875 -90.828125 C 25.9375 -94.785156 29.96875 -97.597656 33.3125 -99.265625 C 36.664062 -100.941406 40.242188 -102.539062 44.046875 -104.0625 C 47.085938 -105.28125 49.785156 -106.078125 52.140625 -106.453125 C 54.503906 -106.835938 56.75 -107.03125 58.875 -107.03125 Z M 27.609375 -61.609375 C 32.628906 -61.003906 37.421875 -60.625 41.984375 -60.46875 C 46.546875 -60.320312 51.414062 -60.25 56.59375 -60.25 C 60.394531 -60.25 64.691406 -60.320312 69.484375 -60.46875 C 74.273438 -60.625 78.421875 -60.78125 81.921875 -60.9375 C 81.921875 -67.625 81.117188 -73.894531 79.515625 -79.75 C 77.921875 -85.613281 75.335938 -90.367188 71.765625 -94.015625 C 68.191406 -97.671875 63.4375 -99.5 57.5 -99.5 C 52.632812 -99.5 47.921875 -98.316406 43.359375 -95.953125 C 38.796875 -93.597656 35.03125 -89.832031 32.0625 -84.65625 C 29.09375 -79.488281 27.609375 -72.644531 27.609375 -64.125 Z M 27.609375 -61.609375 "/></g></g></g><g fill="#000000" fill-opacity="1"><g transform="translate(855.315949, 455.752467)"><g><path d="M 32.171875 -165.671875 L 34.234375 -163.84375 L 34.234375 -84.65625 L 34.6875 -84.65625 L 46.78125 -96.984375 C 50.125 -100.328125 54.421875 -102.835938 59.671875 -104.515625 C 64.921875 -106.191406 69.828125 -107.03125 74.390625 -107.03125 C 82.765625 -107.03125 90.066406 -105.085938 96.296875 -101.203125 C 102.535156 -97.328125 107.363281 -91.890625 110.78125 -84.890625 C 114.207031 -77.890625 115.921875 -69.75 115.921875 -60.46875 C 115.921875 -57.125 115.460938 -53.242188 114.546875 -48.828125 C 113.640625 -44.421875 112.195312 -40.007812 110.21875 -35.59375 C 108.394531 -31.488281 106.414062 -28.066406 104.28125 -25.328125 C 102.15625 -22.585938 100.03125 -20.382812 97.90625 -18.71875 L 75.078125 -2.28125 C 71.734375 0.15625 68.3125 1.597656 64.8125 2.046875 C 61.3125 2.503906 57.8125 2.734375 54.3125 2.734375 C 49.289062 2.734375 44.304688 2.085938 39.359375 0.796875 C 34.421875 -0.492188 29.972656 -2.585938 26.015625 -5.484375 L 16.890625 2.734375 L 13.234375 1.375 C 13.535156 -1.363281 13.800781 -4.828125 14.03125 -9.015625 C 14.257812 -13.203125 14.445312 -17.421875 14.59375 -21.671875 C 14.75 -25.929688 14.863281 -29.660156 14.9375 -32.859375 C 15.019531 -36.054688 15.0625 -38.109375 15.0625 -39.015625 L 15.0625 -141.9375 C 15.0625 -144.976562 14.640625 -147.222656 13.796875 -148.671875 C 12.960938 -150.117188 11.484375 -150.84375 9.359375 -150.84375 L -3.421875 -150.84375 L -3.421875 -157.234375 C 2.816406 -158.140625 8.863281 -159.203125 14.71875 -160.421875 C 20.570312 -161.640625 26.390625 -163.390625 32.171875 -165.671875 Z M 34.234375 -70.515625 L 34.234375 -21.671875 C 34.234375 -20.148438 35.144531 -18.707031 36.96875 -17.34375 C 38.789062 -15.976562 41.148438 -14.609375 44.046875 -13.234375 C 47.546875 -11.710938 50.96875 -10.609375 54.3125 -9.921875 C 57.65625 -9.242188 60.242188 -8.90625 62.078125 -8.90625 C 71.503906 -8.90625 79.523438 -12.59375 86.140625 -19.96875 C 92.765625 -27.34375 96.078125 -38.410156 96.078125 -53.171875 C 96.078125 -60.171875 94.9375 -66.632812 92.65625 -72.5625 C 90.375 -78.5 86.875 -83.253906 82.15625 -86.828125 C 77.4375 -90.398438 71.425781 -92.1875 64.125 -92.1875 C 60.320312 -92.1875 56.554688 -91.460938 52.828125 -90.015625 C 49.097656 -88.578125 45.789062 -86.640625 42.90625 -84.203125 C 40.164062 -81.773438 38.035156 -79.304688 36.515625 -76.796875 C 34.992188 -74.285156 34.234375 -72.191406 34.234375 -70.515625 Z M 34.234375 -70.515625 "/></g></g></g><g fill="#000000" fill-opacity="1"><g transform="translate(981.511221, 455.752467)"><g><path d="M 58.875 -107.03125 C 66.332031 -107.03125 73.332031 -105.507812 79.875 -102.46875 C 86.414062 -99.425781 91.773438 -94.820312 95.953125 -88.65625 C 100.140625 -82.5 102.234375 -74.550781 102.234375 -64.8125 C 102.234375 -62.53125 102.191406 -60.628906 102.109375 -59.109375 C 102.035156 -57.585938 101.925781 -56.445312 101.78125 -55.6875 C 94.476562 -54.46875 87.175781 -53.628906 79.875 -53.171875 C 72.570312 -52.710938 66.410156 -52.484375 61.390625 -52.484375 L 27.15625 -52.484375 C 27.15625 -39.097656 30.539062 -28.257812 37.3125 -19.96875 C 44.082031 -11.675781 54.460938 -7.53125 68.453125 -7.53125 C 73.785156 -7.53125 78.734375 -8.632812 83.296875 -10.84375 C 87.859375 -13.050781 92.347656 -15.519531 96.765625 -18.25 L 99.71875 -15.96875 L 95.84375 -9.359375 C 95.238281 -8.296875 94.554688 -7.457031 93.796875 -6.84375 C 93.179688 -6.382812 91.617188 -5.429688 89.109375 -3.984375 C 86.597656 -2.546875 83.59375 -1.21875 80.09375 0 C 76.445312 1.363281 72.796875 2.460938 69.140625 3.296875 C 65.492188 4.140625 61.921875 4.5625 58.421875 4.5625 C 41.835938 4.5625 28.941406 -0.226562 19.734375 -9.8125 C 10.535156 -19.394531 5.9375 -32.25 5.9375 -48.375 C 5.9375 -57.957031 6.882812 -65.601562 8.78125 -71.3125 C 10.6875 -77.019531 12.851562 -81.351562 15.28125 -84.3125 C 17.71875 -87.28125 19.695312 -89.453125 21.21875 -90.828125 C 25.9375 -94.785156 29.96875 -97.597656 33.3125 -99.265625 C 36.664062 -100.941406 40.242188 -102.539062 44.046875 -104.0625 C 47.085938 -105.28125 49.785156 -106.078125 52.140625 -106.453125 C 54.503906 -106.835938 56.75 -107.03125 58.875 -107.03125 Z M 27.609375 -61.609375 C 32.628906 -61.003906 37.421875 -60.625 41.984375 -60.46875 C 46.546875 -60.320312 51.414062 -60.25 56.59375 -60.25 C 60.394531 -60.25 64.691406 -60.320312 69.484375 -60.46875 C 74.273438 -60.625 78.421875 -60.78125 81.921875 -60.9375 C 81.921875 -67.625 81.117188 -73.894531 79.515625 -79.75 C 77.921875 -85.613281 75.335938 -90.367188 71.765625 -94.015625 C 68.191406 -97.671875 63.4375 -99.5 57.5 -99.5 C 52.632812 -99.5 47.921875 -98.316406 43.359375 -95.953125 C 38.796875 -93.597656 35.03125 -89.832031 32.0625 -84.65625 C 29.09375 -79.488281 27.609375 -72.644531 27.609375 -64.125 Z M 27.609375 -61.609375 "/></g></g></g><g fill="#000000" fill-opacity="1"><g transform="translate(1090.81961, 455.752467)"><g><path d="M 40.84375 -165.671875 L 42.90625 -163.84375 L 42.90625 -23.96875 C 42.90625 -21.226562 42.976562 -18.410156 43.125 -15.515625 C 43.28125 -12.628906 43.738281 -10.578125 44.5 -9.359375 C 45.101562 -8.441406 46.015625 -7.832031 47.234375 -7.53125 C 48.453125 -7.226562 49.820312 -7 51.34375 -6.84375 L 61.84375 -6.15625 L 61.84375 0.6875 C 59.707031 0.53125 56.890625 0.414062 53.390625 0.34375 C 49.898438 0.269531 46.328125 0.191406 42.671875 0.109375 C 39.023438 0.0351562 35.90625 0 33.3125 0 C 29.050781 0 24.109375 0.0703125 18.484375 0.21875 C 12.859375 0.375 8.296875 0.53125 4.796875 0.6875 L 4.796875 -6.15625 L 15.0625 -6.84375 C 16.582031 -7 18.023438 -7.226562 19.390625 -7.53125 C 20.765625 -7.832031 21.753906 -8.515625 22.359375 -9.578125 C 23.117188 -10.796875 23.535156 -12.925781 23.609375 -15.96875 C 23.691406 -19.007812 23.734375 -21.675781 23.734375 -23.96875 L 23.734375 -140.578125 C 23.734375 -144.523438 23.273438 -147.257812 22.359375 -148.78125 C 21.453125 -150.15625 19.78125 -150.84375 17.34375 -150.84375 L 5.25 -150.84375 L 5.25 -157.234375 C 12.394531 -158.296875 19.007812 -159.507812 25.09375 -160.875 C 31.1875 -162.25 36.4375 -163.847656 40.84375 -165.671875 Z M 40.84375 -165.671875 "/></g></g></g><g fill="#000000" fill-opacity="1"><g transform="translate(1157.226132, 455.752467)"><g><path d="M 41.3125 -141.71875 L 44.046875 -139.203125 C 43.429688 -134.941406 42.859375 -129.84375 42.328125 -123.90625 C 41.796875 -117.976562 41.53125 -111.363281 41.53125 -104.0625 L 41.53125 -98.125 L 72.796875 -99.5 L 70.75 -87.171875 L 41.53125 -87.171875 L 41.53125 -27.15625 C 41.53125 -22.4375 42.363281 -18.671875 44.03125 -15.859375 C 45.707031 -13.046875 49.054688 -11.640625 54.078125 -11.640625 C 56.816406 -11.640625 59.25 -12.09375 61.375 -13 C 63.507812 -13.914062 65.566406 -14.90625 67.546875 -15.96875 L 70.515625 -12.09375 L 59.5625 0 C 58.800781 0.914062 57.050781 1.597656 54.3125 2.046875 C 51.570312 2.503906 48.378906 2.734375 44.734375 2.734375 C 36.972656 2.734375 31.300781 0.566406 27.71875 -3.765625 C 24.144531 -8.097656 22.359375 -13.914062 22.359375 -21.21875 L 22.359375 -87.171875 L 5.015625 -86.265625 L 5.015625 -91.046875 L 22.8125 -99.046875 L 22.8125 -117.75 C 22.8125 -119.726562 22.734375 -122.3125 22.578125 -125.5 C 22.429688 -128.695312 22.207031 -131.210938 21.90625 -133.046875 C 25.863281 -134.265625 29.476562 -135.632812 32.75 -137.15625 C 36.019531 -138.675781 38.875 -140.195312 41.3125 -141.71875 Z M 41.3125 -141.71875 "/></g></g></g></svg>