<?xml version="1.0" encoding="UTF-8" standalone="no"?>
<!-- Created with Inkscape (http://www.inkscape.org/) -->

<svg
   width="964"
   height="750"
   viewBox="0 0 255.05829 198.4375"
   version="1.1"
   id="svg1"
   xml:space="preserve"
   xmlns="http://www.w3.org/2000/svg"
   xmlns:svg="http://www.w3.org/2000/svg"><defs
     id="defs1" /><g
     id="layer1"
     transform="translate(-50.493353,-100.6449)"><path
       style="fill:#000000;stroke-width:2.22735"
       d="m 97.085626,256.60313 c -18.657029,-4.17577 -33.199931,-17.98558 -37.388536,-35.5038 -1.329213,-5.55911 -1.306387,-14.82234 0.04956,-20.13541 2.241101,-8.78132 6.857523,-16.18556 13.563175,-21.75393 5.308303,-4.40799 9.949588,-6.85529 16.98854,-8.95796 l 5.909895,-1.76534 0.411483,-3.31341 c 0.482024,-3.88118 2.305861,-8.86959 4.450337,-12.172 5.33076,-8.20914 15.56956,-13.86486 25.1002,-13.86486 h 3.57118 l 1.05452,-2.95083 c 6.48814,-18.15551 25.38867,-30.21117 47.36423,-30.21117 25.71613,0 46.58815,16.69707 50.71822,40.57332 l 0.77293,4.46843 2.1741,-0.4597 c 1.19574,-0.25287 4.81566,-0.45762 8.04414,-0.45509 5.03356,0.004 6.35431,0.21314 9.26847,1.46703 6.92732,2.98099 12.51147,9.47617 13.41497,15.60354 0.31704,2.15039 0.51948,2.35605 2.88596,2.93228 4.38656,1.06815 11.22395,4.41242 15.34869,7.50728 7.32228,5.49407 12.80075,13.5354 15.30083,22.45871 1.49407,5.33272 1.66778,15.00917 0.36948,20.57986 -4.17679,17.9212 -18.34469,31.58947 -37.3202,36.00409 -4.45322,1.03605 -7.65208,1.07702 -81.00238,1.03794 -72.35225,-0.0383 -76.61226,-0.0959 -81.049816,-1.08898 z m 164.745144,-5.35262 c 6.08657,-2.0881 9.68363,-3.97202 14.39753,-7.54048 15.90399,-12.03959 20.93275,-34.64921 11.42022,-51.34603 -4.63688,-8.13881 -14.75134,-15.57991 -24.60773,-18.10368 -4.39011,-1.12408 -5.25213,-1.95633 -5.25213,-5.07088 0,-4.88443 -4.38447,-10.53416 -10.50428,-13.53549 -3.36514,-1.65037 -12.96569,-1.51195 -16.5762,0.23901 -4.69647,2.27758 -5.21735,1.85859 -6.08706,-4.89647 -2.24418,-17.43097 -11.49845,-29.95136 -27.07754,-36.63399 -13.06929,-5.60608 -29.9725,-5.09112 -42.24327,1.28702 -9.83791,5.11353 -17.1153,13.48296 -20.17814,23.20589 -1.45095,4.60608 -1.84564,4.95496 -5.21414,4.60906 -10.01679,-1.02853 -20.73414,4.78291 -25.72828,13.95125 -1.66286,3.05264 -2.32462,5.213 -2.92176,9.5381 l -0.77198,5.59155 -4.664346,0.96733 c -17.690122,3.6686 -29.948814,16.22101 -32.017896,32.78501 -2.610461,20.89799 11.99235,40.59423 33.949261,45.79075 4.489211,1.06244 7.051251,1.09315 81.871501,0.98176 l 77.23729,-0.11516 z"
       id="path1" /><rect
       style="fill:#afc6e9;fill-opacity:1;stroke:#000000;stroke-width:2.48696;stroke-dasharray:none;stroke-opacity:1"
       id="rect13-8"
       width="23.375597"
       height="95.543297"
       x="110.87736"
       y="158.86742" /><rect
       style="fill:#afc6e9;fill-opacity:1;stroke:#000000;stroke-width:2.71407;stroke-dasharray:none;stroke-opacity:1"
       id="rect15"
       width="23.139812"
       height="114.9513"
       x="139.76048"
       y="139.38139" /><rect
       style="fill:#afc6e9;fill-opacity:1;stroke:#000000;stroke-width:2.90068;stroke-dasharray:none;stroke-opacity:1"
       id="rect16"
       width="22.946129"
       height="132.40747"
       x="168.42543"
       y="122.04967" /><rect
       style="fill:#afc6e9;fill-opacity:1;stroke:#000000;stroke-width:2.61281;stroke-dasharray:none;stroke-opacity:1"
       id="rect17"
       width="23.244965"
       height="106.04935"
       x="197.2722"
       y="148.11778" /><rect
       style="fill:#afc6e9;fill-opacity:1;stroke:#000000;stroke-width:2.38273;stroke-dasharray:none;stroke-opacity:1"
       id="rect18"
       width="23.483814"
       height="87.29705"
       x="225.75473"
       y="166.98094" /><text
       xml:space="preserve"
       style="font-style:normal;font-variant:normal;font-weight:normal;font-stretch:normal;font-size:47.9931px;line-height:0;font-family:'Darker Grotesque';-inkscape-font-specification:'Darker Grotesque, @wght=800';font-variant-ligatures:normal;font-variant-caps:normal;font-variant-numeric:normal;font-variant-east-asian:normal;font-variation-settings:'wght' 800;text-align:start;writing-mode:lr-tb;direction:ltr;text-anchor:start;fill:#1a1a1a;stroke:#000000;stroke-width:0.0736222"
       x="100.54423"
       y="290.23666"
       id="text4"
       transform="scale(0.98978756,1.0103178)"><tspan
         id="tspan4"
         style="font-style:normal;font-variant:normal;font-weight:normal;font-stretch:normal;font-size:47.9931px;font-family:'Darker Grotesque';-inkscape-font-specification:'Darker Grotesque, @wght=800';font-variant-ligatures:normal;font-variant-caps:normal;font-variant-numeric:normal;font-variant-east-asian:normal;font-variation-settings:'wght' 800;fill:#1a1a1a;stroke-width:0.0736222"
         x="100.54423"
         y="290.23666"
         dx="0 -1.4644767 -1.2814174 -0.89308935 -2.1967156 -2.6568575 -1.2814174 -0.91529816">TurnVest</tspan></text></g></svg>
